<?xml version="1.0" encoding="UTF-8" standalone="no"?>
<!-- Created with Inkscape (http://www.inkscape.org/) -->

<svg
   xmlns:dc="http://purl.org/dc/elements/1.1/"
   xmlns:cc="http://creativecommons.org/ns#"
   xmlns:rdf="http://www.w3.org/1999/02/22-rdf-syntax-ns#"
   xmlns:svg="http://www.w3.org/2000/svg"
   xmlns="http://www.w3.org/2000/svg"
   xmlns:sodipodi="http://sodipodi.sourceforge.net/DTD/sodipodi-0.dtd"
   xmlns:inkscape="http://www.inkscape.org/namespaces/inkscape"
   width="155.50352mm"
   height="72.309921mm"
   viewBox="0 0 155.50353 72.309921"
   version="1.1"
   id="svg73"
   inkscape:version="0.92.2 (5c3e80d, 2017-08-06)"
   sodipodi:docname="logo.svm.svg">
  <defs
     id="defs67" />
  <sodipodi:namedview
     id="base"
     pagecolor="#ffffff"
     bordercolor="#666666"
     borderopacity="1.0"
     inkscape:pageopacity="0.0"
     inkscape:pageshadow="2"
     inkscape:zoom="0.98994949"
     inkscape:cx="135.57936"
     inkscape:cy="286.86622"
     inkscape:document-units="mm"
     inkscape:current-layer="layer1"
     showgrid="false"
     inkscape:window-width="1853"
     inkscape:window-height="1025"
     inkscape:window-x="67"
     inkscape:window-y="27"
     inkscape:window-maximized="1" />
  <metadata
     id="metadata70">
    <rdf:RDF>
      <cc:Work
         rdf:about="">
        <dc:format>image/svg+xml</dc:format>
        <dc:type
           rdf:resource="http://purl.org/dc/dcmitype/StillImage" />
        <dc:title></dc:title>
      </cc:Work>
    </rdf:RDF>
  </metadata>
  <g
     inkscape:label="Layer 1"
     inkscape:groupmode="layer"
     id="layer1"
     transform="translate(6.6925845,-52.202179)">
    <g
       transform="matrix(0.35277777,0,0,-0.35277777,147.11833,116.35482)"
       style="fill:#000000;fill-opacity:1"
       id="g633">
      <g
         transform="translate(-58.196381,175.33301)"
         id="g612">
        <path
           inkscape:connector-curvature="0"
           id="path614"
           style="fill:#eec600;fill-opacity:1;fill-rule:nonzero;stroke:none"
           d="M 0,0 -21.514,-13.724 -34.019,6.517 -46.524,-13.724 -68.037,0 l 9.273,-30.601 24.745,1.375 24.746,-1.375 z" />
      </g>
      <g
         transform="translate(-21.196773,69.388103)"
         id="g616">
        <path
           inkscape:connector-curvature="0"
           id="path618"
           style="fill:#f4c3a8;fill-opacity:1;fill-rule:nonzero;stroke:none"
           d="M 0,0 C 2.875,1.762 9.44,3.512 15.617,2.333 19.976,1.501 23.823,-1.259 25.13,-5.471 28.468,-16.228 21.715,-22.366 12.204,-23.887 7.326,-24.666 4.405,-24.501 -0.649,-23.832 -1.049,-16.366 -1.211,-8.471 0,0" />
      </g>
      <g
         transform="translate(-163.32908,69.388103)"
         id="g620">
        <path
           inkscape:connector-curvature="0"
           id="path622"
           style="fill:#f4c3a8;fill-opacity:1;fill-rule:nonzero;stroke:none"
           d="m 0,0 c -2.875,1.762 -9.44,3.512 -15.617,2.333 -4.359,-0.832 -8.206,-3.592 -9.513,-7.804 -3.338,-10.757 3.415,-16.895 12.926,-18.416 4.878,-0.779 7.799,-0.614 12.853,0.055 C 1.049,-16.366 1.211,-8.471 0,0" />
      </g>
      <g
         transform="translate(-15.354791,87.470904)"
         id="g624">
        <path
           inkscape:connector-curvature="0"
           id="path626"
           style="fill:#f9dbcc;fill-opacity:1;fill-rule:nonzero;stroke:none"
           d="m 0,0 c -2.226,19.288 -11.87,30.044 -26.336,40.059 -14.466,10.015 -27.819,11.499 -33.754,13.353 -4.348,1.359 -27.702,1.855 -33.637,0 -5.935,-1.854 -19.288,-3.338 -33.754,-13.353 -14.466,-10.015 -24.11,-20.771 -26.335,-40.059 -2.226,-19.288 -1.593,-66.09 8.16,-82.345 6.08,-10.134 45.5,-11.385 69.881,-11.16 23.502,-0.225 61.534,1.026 67.615,11.16 C 1.593,-66.09 2.226,-19.288 0,0" />
      </g>
      <g
         transform="translate(-33.097383,62.43321)"
         id="g628">
        <path
           inkscape:connector-curvature="0"
           id="path630"
           style="fill:#211915;fill-opacity:1;fill-rule:nonzero;stroke:none"
           d="m 0,0 c 0,-5.941 -4.816,-10.757 -10.757,-10.757 -5.941,0 -10.757,4.816 -10.757,10.757 0,5.941 4.816,10.757 10.757,10.757 C -4.816,10.757 0,5.941 0,0" />
      </g>
      <g
         transform="translate(-37.115688,63.127898)"
         id="g632">
        <path
           inkscape:connector-curvature="0"
           id="path634"
           style="fill:#ffffff;fill-opacity:1;fill-rule:nonzero;stroke:none"
           d="m 0,0 c 0,-1.963 -1.591,-3.555 -3.555,-3.555 -1.963,0 -3.554,1.592 -3.554,3.555 0,1.963 1.591,3.555 3.554,3.555 C -1.591,3.555 0,1.963 0,0" />
      </g>
      <g
         transform="translate(-126.56988,62.43321)"
         id="g636">
        <path
           inkscape:connector-curvature="0"
           id="path638"
           style="fill:#211915;fill-opacity:1;fill-rule:nonzero;stroke:none"
           d="m 0,0 c 0,-5.941 -4.816,-10.757 -10.757,-10.757 -5.941,0 -10.757,4.816 -10.757,10.757 0,5.941 4.816,10.757 10.757,10.757 C -4.816,10.757 0,5.941 0,0" />
      </g>
      <g
         transform="translate(-136.58831,63.127898)"
         id="g640">
        <path
           inkscape:connector-curvature="0"
           id="path642"
           style="fill:#ffffff;fill-opacity:1;fill-rule:nonzero;stroke:none"
           d="m 0,0 c 0,-1.963 -1.591,-3.555 -3.555,-3.555 -1.963,0 -3.554,1.592 -3.554,3.555 0,1.963 1.591,3.555 3.554,3.555 C -1.591,3.555 0,1.963 0,0" />
      </g>
      <g
         transform="translate(-117.5442,78.661111)"
         id="g644"
         style="fill:#000000;fill-opacity:1">
        <path
           inkscape:connector-curvature="0"
           id="path646"
           style="fill:#000000;fill-opacity:1;fill-rule:nonzero;stroke:none"
           d="m 0,0 h -31.529 c -3.38,0 -6.12,2.74 -6.12,6.12 0,3.38 2.74,6.12 6.12,6.12 H 0 C 3.38,12.24 6.12,9.5 6.12,6.12 6.12,2.74 3.38,0 0,0" />
      </g>
      <g
         transform="translate(-66.842989,56.931023)"
         id="g656">
        <path
           inkscape:connector-curvature="0"
           id="path658"
           style="fill:#f2a899;fill-opacity:1;fill-rule:nonzero;stroke:none"
           d="m 0,0 c -2.72,6.924 -25.717,35.609 -25.717,35.609 l -0.005,-0.023 -0.005,0.023 c 0,0 -22.998,-28.685 -25.718,-35.609 -2.72,-6.924 -2.529,-9.462 6.182,-10.88 7.551,-1.23 13.488,-1.683 17.252,-1.844 l 0.006,-0.073 c 0,0 0.797,-0.026 2.283,0.002 1.486,-0.028 2.282,-0.002 2.282,-0.002 l 0.006,0.073 c 3.764,0.161 9.701,0.614 17.252,1.844 C 2.53,-9.462 2.72,-6.924 0,0" />
      </g>
      <g
         transform="translate(-35.199183,78.661111)"
         id="g660"
         style="fill:#000000;fill-opacity:1">
        <path
           inkscape:connector-curvature="0"
           id="path662"
           style="fill:#000000;fill-opacity:1;fill-rule:nonzero;stroke:none"
           d="m 0,0 h -31.528 c -3.381,0 -6.121,2.74 -6.121,6.12 0,3.38 2.74,6.12 6.121,6.12 H 0 C 3.38,12.24 6.12,9.5 6.12,6.12 6.12,2.74 3.38,0 0,0" />
      </g>
      <g
         transform="translate(-10.65637,108.98411)"
         id="g664"
         style="fill:#42464a;fill-opacity:1">
        <path
           inkscape:connector-curvature="0"
           id="path666"
           style="fill:#42464a;fill-opacity:1;fill-rule:nonzero;stroke:none"
           d="m 0,0 c -1.236,13.601 -27.696,33.878 -50.693,39.071 -17.496,3.95 -26.96,4.179 -30.495,4.063 -3.534,0.116 -12.998,-0.113 -30.495,-4.063 -22.997,-5.193 -49.456,-25.47 -50.692,-39.071 -1.237,-13.6 2.816,-43.213 2.816,-43.213 0,0 3.366,1.917 10.042,12.055 6.024,9.147 5.808,27.145 5.708,30.579 2.225,-0.697 5.277,-1.121 9.535,-0.905 14.589,0.742 26.212,4.946 31.405,6.924 5.192,1.978 16.073,6.43 16.073,6.43 0,0 -10.633,-6.182 -1.731,-10.386 8.902,-4.204 28.437,0.989 37.34,4.204 6.429,2.321 12.068,5.408 14.714,6.949 C -25.513,8.876 -18.546,0 -18.546,0 c 0,0 -0.989,-21.019 5.687,-31.158 6.677,-10.138 9.397,-11.869 9.397,-11.869 0,0 4.698,29.427 3.462,43.027" />
      </g>
      <path
         d="m 0,0 c 0.072,3.063 -0.136,6.217 -0.727,9.389 -0.632,3.155 -1.605,6.329 -2.987,9.442 -1.468,3.12 -3.226,5.984 -5.29,8.727 -4.157,5.426 -9.459,10.022 -15.216,13.504 -5.76,3.517 -11.959,5.995 -18.169,7.524 -6.28,1.546 -12.32,2.058 -18.001,1.939 -5.657,-0.165 -10.906,-0.968 -15.578,-2.302 -4.681,-1.33 -8.821,-3.149 -12.413,-5.408 -1.515,-0.964 -2.628,-2.044 -3.402,-3.181 -0.775,1.137 -1.887,2.217 -3.402,3.181 -3.592,2.259 -7.733,4.078 -12.414,5.408 -4.671,1.334 -9.92,2.137 -15.577,2.302 -5.682,0.119 -11.722,-0.393 -18.001,-1.939 -6.211,-1.529 -12.41,-4.007 -18.169,-7.524 -5.758,-3.482 -11.06,-8.078 -15.217,-13.504 -2.063,-2.743 -3.821,-5.607 -5.289,-8.727 -1.382,-3.113 -2.355,-6.287 -2.987,-9.442 -0.592,-3.172 -0.8,-6.326 -0.727,-9.389 0.104,-3.071 0.587,-6.052 1.308,-8.872 0.749,-2.824 1.877,-5.457 3.181,-7.868 1.346,-2.407 3.015,-4.502 4.76,-6.383 -1.369,2.082 -2.558,4.349 -3.239,6.839 -0.664,2.485 -1.057,5.07 -0.949,7.695 0.106,2.616 0.498,5.228 1.286,7.742 0.798,2.509 1.879,4.913 3.215,7.128 1.382,2.196 2.997,4.187 4.769,5.894 1.741,1.665 3.854,3.179 5.946,4.433 1.043,0.647 2.166,1.187 3.245,1.736 1.138,0.491 2.232,0.994 3.392,1.396 2.292,0.829 4.602,1.518 6.965,2.001 2.357,0.488 4.705,0.856 7.041,1.101 2.342,0.225 4.648,0.365 6.908,0.427 4.504,0.084 9.053,-0.06 13.408,-0.168 8.723,-0.214 17.076,-0.101 24.07,2.446 2.782,0.998 5.093,2.867 6.477,5.101 1.383,-2.234 3.694,-4.103 6.476,-5.101 6.994,-2.547 15.347,-2.66 24.07,-2.446 4.355,0.108 8.904,0.252 13.409,0.168 2.26,-0.062 4.565,-0.202 6.908,-0.427 2.335,-0.245 4.684,-0.613 7.04,-1.101 2.363,-0.483 4.673,-1.172 6.966,-2.001 1.159,-0.402 2.254,-0.905 3.392,-1.396 1.079,-0.549 2.202,-1.089 3.245,-1.736 2.092,-1.254 4.205,-2.768 5.945,-4.433 1.773,-1.707 3.388,-3.698 4.769,-5.894 1.337,-2.215 2.417,-4.619 3.215,-7.128 0.788,-2.514 1.181,-5.126 1.286,-7.742 0.109,-2.625 -0.285,-5.21 -0.948,-7.695 -0.681,-2.49 -1.87,-4.757 -3.24,-6.839 1.745,1.881 3.415,3.976 4.76,6.383 1.304,2.411 2.433,5.044 3.182,7.868 0.72,2.82 1.203,5.801 1.308,8.872"
         style="fill:#000000;fill-opacity:1;fill-rule:nonzero;stroke:none"
         id="path48"
         inkscape:connector-curvature="0" />
    </g>
    <g
       aria-label="سلطون"
       style="font-style:normal;font-weight:normal;font-size:20.52849388px;line-height:1.25;font-family:sans-serif;letter-spacing:0px;word-spacing:0px;fill:#000000;fill-opacity:1;stroke:none;stroke-width:0.51321232"
       id="text133"
       transform="translate(-80.886905,-51.555951)">
      <path
         d="m 134.06916,138.83386 h 1.16275 q 0.88208,0 1.43004,-0.2272 0.56133,-0.2272 0.84199,-0.66824 0.29403,-0.45441 0.36085,-1.17612 l 0.22721,-2.49923 0.0535,-0.48114 h 0.48113 1.57706 0.46777 l 0.0668,0.45441 0.33412,2.5126 q 0.14701,1.13602 0.66825,1.63052 0.52123,0.4945 1.51023,0.4945 0.5346,0 0.88208,-0.18711 0.36086,-0.18711 0.58806,-0.64151 0.2272,-0.46778 0.29403,-1.24294 l 0.25393,-2.53933 0.0401,-0.48114 h 0.49451 1.57705 0.45441 l 0.0668,0.45441 0.34748,2.56606 q 0.16038,1.16275 0.61479,1.65725 0.46777,0.48113 1.2964,0.46777 0.4945,0 0.77516,-0.16038 0.29403,-0.16038 0.46777,-0.4945 0.48114,-0.94891 0.17374,-2.91355 -0.16037,-1.05583 -0.52123,-2.61952 l -0.10692,-0.46777 0.46778,-0.16038 2.09829,-0.66825 0.4945,-0.16038 0.17374,0.49451 q 0.58806,1.65724 0.73507,3.79563 0.0267,0.4544 0.0267,0.86872 0.0134,1.40331 -0.28066,2.49923 -0.29403,1.09593 -0.88209,1.85773 -0.58805,0.7618 -1.49687,1.16274 -0.90881,0.40095 -2.08492,0.40095 -2.31213,0.0267 -3.60852,-1.53696 -1.20285,1.55032 -3.39469,1.55032 -2.56606,-0.0134 -3.90255,-1.51023 -1.49687,1.51023 -4.08966,1.51023 h -1.13602 q -0.33412,0 -0.60142,-0.17374 -0.57469,-0.36085 -0.57469,-1.34985 v -0.45441 q 0,-1.0291 0.57469,-1.40332 0.2673,-0.16038 0.60142,-0.16038 z"
         style="font-style:normal;font-variant:normal;font-weight:bold;font-stretch:normal;font-size:27.37132454px;font-family:Samim;-inkscape-font-specification:'Samim Bold';fill:#42464a;fill-opacity:1;stroke-width:0.51321232"
         id="path959"
         inkscape:connector-curvature="0" />
      <path
         d="m 125.1414,138.83386 h 1.24294 q 0.0668,0 0.12028,-0.0134 1.04247,-0.0267 1.49687,-0.64152 0.46777,-0.61478 0.42768,-2.03146 l -0.41431,-12.09524 -0.0134,-0.36085 0.33412,-0.14702 2.31213,-0.989 0.73507,-0.32076 v 0.81526 13.08424 q 0,1.44341 0.54796,2.07156 0.5346,0.62815 1.71071,0.62815 h 0.58806 q 0.14701,0 0.29403,0.0401 0.14701,0.0267 0.28066,0.12028 0.33412,0.20048 0.46777,0.56133 0.12028,0.37422 0.12028,0.84199 v 0.45441 q 0,0.97563 -0.56132,1.34985 -0.2673,0.17374 -0.61479,0.17374 h -0.56132 q -2.16512,0 -3.66199,-1.30976 -1.45677,1.30976 -3.63525,1.30976 h -1.21621 q -0.33412,0 -0.60142,-0.17374 -0.57469,-0.36085 -0.57469,-1.34985 v -0.45441 q 0,-1.0291 0.57469,-1.40332 0.2673,-0.16038 0.60142,-0.16038 z"
         style="font-style:normal;font-variant:normal;font-weight:bold;font-stretch:normal;font-size:27.37132454px;font-family:Samim;-inkscape-font-specification:'Samim Bold';fill:#42464a;fill-opacity:1;stroke-width:0.51321232"
         id="path961"
         inkscape:connector-curvature="0" />
      <path
         d="m 119.63507,141.38656 q -2.12502,0.989 -6.24142,0.989 h -9.20841 q -0.33413,0 -0.60143,-0.17374 -0.57469,-0.36085 -0.57469,-1.34985 v -0.45441 q 0,-1.04246 0.58806,-1.40332 0.2673,-0.16038 0.58806,-0.16038 h 2.04483 l -0.42768,-14.86177 -0.0134,-0.37422 0.34749,-0.13365 2.33886,-0.92217 0.73507,-0.29403 v 0.78853 13.80594 q 4.50397,-5.66672 8.72728,-5.66672 1.09592,0 2.0181,0.33413 0.92218,0.32075 1.64389,0.989 1.5236,1.38995 1.5236,3.67535 0.0134,0.46777 -0.0535,0.92218 -0.0668,0.4544 -0.20048,0.88208 -0.13365,0.44104 -0.32076,0.84199 h 2.13839 l 0.61478,0.0134 q 0.32076,0 0.5747,0.16038 0.33412,0.20048 0.4544,0.56133 0.13365,0.36085 0.13365,0.84199 v 0.45441 q 0,0.97563 -0.54796,1.33649 -0.28066,0.1871 -0.64152,0.1871 h -0.74843 q -3.58179,0 -4.89155,-0.989 z m -7.77838,-2.56606 h 1.30976 q 3.48824,0 5.01184,-0.60142 0.88208,-0.34749 1.22957,-0.84199 0.34749,-0.4945 0.28066,-1.21621 -0.0134,-0.14701 -0.0401,-0.26729 -0.0267,-0.13365 -0.0668,-0.22721 -0.0401,-0.10692 -0.0936,-0.20047 -0.0401,-0.0936 -0.10692,-0.17374 -0.17374,-0.21384 -0.38758,-0.34749 -0.20047,-0.14702 -0.48114,-0.21384 -0.28066,-0.0802 -0.64151,-0.0802 -0.74844,-0.0134 -1.53697,0.30739 -0.78853,0.32076 -1.65724,0.98901 -1.18948,0.92217 -2.82,2.87345 z"
         style="font-style:normal;font-variant:normal;font-weight:bold;font-stretch:normal;font-size:27.37132454px;font-family:Samim;-inkscape-font-specification:'Samim Bold';fill:#42464a;fill-opacity:1;stroke-width:0.51321232"
         id="path963"
         inkscape:connector-curvature="0" />
      <path
         d="m 104.35898,138.83386 q 0.10692,0 0.20047,0.0134 0.10692,0.0134 0.20048,0.0535 0.0936,0.0267 0.1871,0.0802 0.58806,0.36085 0.58806,1.41668 v 0.45441 q 0,0.989 -0.56133,1.34985 -0.26729,0.17374 -0.61478,0.17374 h -1.36322 q -0.24057,1.21621 -0.78853,2.31213 -0.5346,1.09593 -1.34986,2.04483 -2.419045,2.80663 -7.350694,2.82 h -0.02673 -0.374217 l -0.120285,-0.36085 -0.70834,-1.85773 -0.240568,-0.68161 0.721705,-0.0401 q 2.926914,-0.17374 4.650987,-1.24294 1.737437,-1.06919 2.365588,-3.0071 -0.307393,0 -0.721705,0 -0.400947,0 -0.922178,0 -2.967009,0 -4.183215,-1.60379 -0.828625,-1.08256 -0.81526,-2.64625 0.01336,-2.2453 1.082558,-4.02284 1.403315,-2.36558 3.902552,-2.37895 0.935543,0 1.724072,0.33412 0.80189,0.32076 1.43005,0.96228 0.62815,0.62815 1.06919,1.53696 0.70834,1.45678 0.84199,4.29013 z m -6.361696,-3.75553 q -0.360853,0.0134 -0.654881,0.2272 -0.294028,0.21384 -0.561326,0.7217 -0.507866,0.94891 -0.507866,1.68398 0,0.21384 0.02673,0.37422 0.04009,0.16038 0.09355,0.2673 0.06682,0.10692 0.160379,0.18711 0.360852,0.32075 1.189476,0.37421 0.801895,0.0668 2.312134,0.0134 -0.0134,-0.72171 -0.09356,-1.28303 -0.08019,-0.57469 -0.213839,-0.989 -0.133649,-0.42768 -0.320758,-0.72171 -0.173743,-0.30739 -0.400947,-0.4945 -0.227203,-0.18711 -0.481136,-0.2673 -0.240569,-0.0935 -0.547961,-0.0935 z"
         style="font-style:normal;font-variant:normal;font-weight:bold;font-stretch:normal;font-size:27.37132454px;font-family:Samim;-inkscape-font-specification:'Samim Bold';fill:#42464a;fill-opacity:1;stroke-width:0.51321232"
         id="path965"
         inkscape:connector-curvature="0" />
      <path
         d="m 90.499572,144.52731 q -2.004736,3.809 -7.885294,3.83573 -3.635254,0 -5.840463,-1.68398 -2.592791,-1.978 -2.579426,-6.0142 0,-2.87346 1.28303,-5.77364 l 0.200474,-0.45441 0.467772,0.17375 1.99137,0.7217 0.521232,0.18711 -0.213839,0.52123 q -1.029097,2.5126 -1.029097,4.39705 0,2.3255 1.256301,3.43478 1.269666,1.10929 3.982741,1.10929 2.913549,-0.0134 4.263405,-1.18948 1.36322,-1.16274 1.36322,-3.59515 0,-0.85536 -0.347488,-1.99138 -0.334122,-1.14938 -1.015732,-2.55269 l -0.187109,-0.37422 0.307393,-0.2673 1.830992,-1.60379 0.521231,-0.4544 0.307393,0.62815 q 0.360852,0.70834 0.641515,1.40331 0.294028,0.69498 0.507867,1.37659 0.294028,0.96227 0.441042,1.89781 0.160378,0.93555 0.173743,1.85773 0,2.53933 -0.962273,4.41041 z m -7.096764,-13.71239 1.189476,1.18948 q 0.160379,0.17374 0.213839,0.37422 0.06682,0.1871 0,0.38758 -0.05346,0.18711 -0.200474,0.34749 l -1.242936,1.24293 q -0.280663,0.2673 -0.588056,0.28066 -0.307393,0 -0.574691,-0.28066 l -1.242936,-1.24293 q -0.253933,-0.25394 -0.240568,-0.56133 0.01336,-0.32076 0.280663,-0.58806 l 1.162747,-1.16274 q 0.280663,-0.2673 0.614785,-0.2673 0.334123,0 0.628151,0.28066 z"
         style="font-style:normal;font-variant:normal;font-weight:bold;font-stretch:normal;font-size:27.37132454px;font-family:Samim;-inkscape-font-specification:'Samim Bold';fill:#42464a;fill-opacity:1;stroke-width:0.51321232"
         id="path967"
         inkscape:connector-curvature="0" />
    </g>
    <g
       aria-label="اینجا جای تگ لاین است"
       style="font-style:normal;font-weight:normal;font-size:11.11977577px;line-height:1.25;font-family:sans-serif;letter-spacing:0px;word-spacing:0px;fill:#6a7076;fill-opacity:1;stroke:none;stroke-width:0.27799442"
       id="text972">
      <path
         d="m 72.279184,101.41505 0.690985,-0.29956 0.223671,-0.0959 v 0.24364 5.61175 0.15977 h -0.159765 -0.519237 -0.151777 l -0.008,-0.15178 -0.171747,-5.31619 -0.004,-0.10784 z"
         style="font-style:normal;font-variant:normal;font-weight:bold;font-stretch:normal;font-size:8.17998219px;font-family:samim;-inkscape-font-specification:'samim Bold';fill:#6a7076;fill-opacity:1;stroke-width:0.27799442"
         id="path974" />
      <path
         d="m 70.945135,106.68331 q -0.151777,0.12781 -0.375449,0.20769 -0.223671,0.0799 -0.507254,0.11583 -0.27959,0.0359 -0.643056,0.0359 h -0.347489 q -0.111836,0 -0.191718,-0.0559 -0.167754,-0.11184 -0.167754,-0.39941 v -0.1358 q 0,-0.30755 0.171748,-0.41939 0.07988,-0.0479 0.179736,-0.0479 h 0.371454 q 0.359472,0 0.455331,-0.016 0.375448,-0.0519 0.459325,-0.25163 0.07189,-0.17175 0.07189,-0.48729 0,-0.19571 -0.01598,-0.39542 -0.01598,-0.2037 -0.05192,-0.4074 -0.03195,-0.2037 -0.08388,-0.41139 l -0.03994,-0.15977 0.159765,-0.0359 0.603114,-0.1358 0.139795,-0.032 0.04793,0.1358 q 0.07189,0.21568 0.119823,0.44335 0.05192,0.22367 0.07589,0.46332 0.02396,0.23565 0.02396,0.48728 0,1.10238 -0.455331,1.5018 z m 0.159765,1.13832 0.351484,0.35548 q 0.07589,0.0759 0.07589,0.16376 0.004,0.0919 -0.07589,0.16775 l -0.371455,0.37146 q -0.07589,0.0799 -0.171747,0.0799 -0.09187,0.004 -0.167754,-0.0799 l -0.371454,-0.37146 q -0.05192,-0.0479 -0.0679,-0.10784 -0.01598,-0.0599 0.004,-0.11982 0.01997,-0.0599 0.07589,-0.11583 l 0.343496,-0.34749 q 0.08787,-0.0799 0.187724,-0.0799 0.09985,0 0.187724,0.0839 z m -1.282116,0 0.351483,0.35548 q 0.07589,0.0759 0.07589,0.16376 0.004,0.0919 -0.07589,0.16775 l -0.371454,0.37146 q -0.07589,0.0799 -0.171748,0.0799 -0.09187,0.004 -0.167753,-0.0799 l -0.371454,-0.37146 q -0.07988,-0.0759 -0.07189,-0.17174 0.004,-0.0919 0.08388,-0.17175 l 0.343495,-0.34749 q 0.08787,-0.0799 0.187724,-0.0799 0.09985,0 0.187725,0.0839 z"
         style="font-style:normal;font-variant:normal;font-weight:bold;font-stretch:normal;font-size:8.17998219px;font-family:samim;-inkscape-font-specification:'samim Bold';fill:#6a7076;fill-opacity:1;stroke-width:0.27799442"
         id="path976" />
      <path
         d="m 69.10384,107.04278 h -0.171748 q -0.615096,0 -1.10238,-0.45134 -0.487284,0.45134 -1.206228,0.45134 h -0.539208 q -0.09586,0 -0.171747,-0.0479 -0.171748,-0.10385 -0.171748,-0.4074 v -0.1358 q 0,-0.31554 0.171748,-0.42338 0.07589,-0.0439 0.171747,-0.0439 h 0.555185 q 0.151777,0 0.267607,-0.02 0.119824,-0.024 0.199706,-0.0679 0.08388,-0.0439 0.135801,-0.11183 0.05192,-0.0719 0.07589,-0.15977 0.02796,-0.0919 0.02796,-0.20769 l 0.01997,-0.89868 0.004,-0.13181 0.127812,-0.024 0.615096,-0.10385 0.179736,-0.0319 0.008,0.18373 0.03595,1.00252 q 0.008,0.30356 0.147783,0.43936 0.143788,0.1318 0.459325,0.1318 h 0.163759 q 0.04394,0 0.08787,0.012 0.04394,0.008 0.08388,0.0359 0.09985,0.0599 0.1358,0.16776 0.03994,0.10784 0.03994,0.25163 v 0.1358 q 0,0.29556 -0.167754,0.4034 -0.07988,0.0519 -0.18373,0.0519 z m -1.330046,-4.52136 0.355478,0.35548 q 0.04793,0.0519 0.06391,0.11183 0.01997,0.0559 0,0.11583 -0.01598,0.0559 -0.05991,0.10385 l -0.371454,0.37146 q -0.08388,0.0799 -0.175742,0.0839 -0.09187,0 -0.171748,-0.0839 l -0.371454,-0.37146 q -0.07589,-0.0759 -0.07189,-0.16775 0.004,-0.0959 0.08388,-0.17574 l 0.34749,-0.34749 q 0.08388,-0.0799 0.18373,-0.0799 0.09985,0 0.187724,0.0839 z"
         style="font-style:normal;font-variant:normal;font-weight:bold;font-stretch:normal;font-size:8.17998219px;font-family:samim;-inkscape-font-specification:'samim Bold';fill:#6a7076;fill-opacity:1;stroke-width:0.27799442"
         id="path978" />
      <path
         d="m 64.171089,104.31479 q 0.754891,0.35148 1.421911,0.31154 l 0.199707,-0.012 -0.03195,0.1997 -0.09985,0.58315 -0.01598,0.10384 -0.103848,0.028 q -0.1358,0.032 -0.331513,0.11184 -0.195712,0.0759 -0.431366,0.18772 0.103848,0.0639 0.339501,0.10784 0.239648,0.0399 0.587138,0.0439 l 0.439354,0.004 q 0.01997,0 0.03994,0.004 0.02396,0 0.04393,0.008 0.02397,0.004 0.04394,0.012 0.02396,0.008 0.04394,0.024 0.175742,0.10784 0.175742,0.41939 v 0.1358 q 0,0.1358 -0.03595,0.23964 -0.03595,0.10385 -0.131807,0.16376 -0.03994,0.028 -0.08787,0.04 -0.04793,0.012 -0.09586,0.012 h -0.527225 q -0.431366,0 -0.766874,-0.0799 -0.335507,-0.0839 -0.583143,-0.25962 -0.247636,-0.17575 -0.379442,-0.44335 -0.371455,0.2037 -0.754891,0.38743 -0.818797,0.39542 -2.384497,0.39542 h -0.211689 q -0.09985,0 -0.179736,-0.0519 -0.171748,-0.10784 -0.171748,-0.4034 v -0.1358 q 0,-0.30755 0.171748,-0.41939 0.07988,-0.0479 0.179736,-0.0479 h 0.175742 q 1.262145,0 1.789371,-0.1997 0.758885,-0.28359 1.350016,-0.5472 -0.267606,-0.0879 -0.631072,-0.24764 -0.36746,-0.16376 -0.623085,-0.25961 -0.25163,-0.0959 -0.331513,-0.10385 -0.03195,-0.004 -0.0679,-0.004 -0.359472,0 -0.798827,0.57915 l -0.09985,0.12782 -0.127812,-0.0999 -0.459325,-0.35148 -0.119824,-0.0959 0.08787,-0.12382 q 0.415389,-0.58314 0.675008,-0.77087 0.395419,-0.28757 0.874715,-0.28757 0.107841,0 0.219677,0.016 0.11583,0.016 0.235654,0.0479 0.123818,0.032 0.247636,0.0799 0.127812,0.0479 0.259619,0.11183 0.487284,0.22767 0.982556,0.45933 z m -0.866726,3.50684 0.355477,0.35548 q 0.04793,0.0519 0.06391,0.10784 0.01997,0.0599 0,0.11583 -0.01598,0.0599 -0.05991,0.10784 l -0.371454,0.37146 q -0.08388,0.0799 -0.175742,0.0799 -0.09186,0.004 -0.171747,-0.0799 l -0.371455,-0.37146 q -0.07589,-0.0759 -0.07189,-0.17174 0.004,-0.0919 0.08388,-0.17175 l 0.347489,-0.34749 q 0.08388,-0.0799 0.18373,-0.0799 0.09985,0 0.187725,0.0839 z"
         style="font-style:normal;font-variant:normal;font-weight:bold;font-stretch:normal;font-size:8.17998219px;font-family:samim;-inkscape-font-specification:'samim Bold';fill:#6a7076;fill-opacity:1;stroke-width:0.27799442"
         id="path980" />
      <path
         d="m 60.57637,105.98433 q 0.09586,0 0.175742,0.0439 0.175742,0.10784 0.175742,0.42338 v 0.1358 q 0,0.29157 -0.167754,0.4034 -0.07988,0.0519 -0.18373,0.0519 h -0.159765 q -0.902674,0 -1.294099,-0.60312 -0.263612,-0.41139 -0.291571,-1.27412 l -0.11583,-3.59073 -0.004,-0.10784 0.09985,-0.0439 0.690985,-0.30355 0.223671,-0.0998 v 0.24763 3.83836 q 0,0.47131 0.16376,0.67501 0.167753,0.2037 0.523231,0.2037 z"
         style="font-style:normal;font-variant:normal;font-weight:bold;font-stretch:normal;font-size:8.17998219px;font-family:samim;-inkscape-font-specification:'samim Bold';fill:#6a7076;fill-opacity:1;stroke-width:0.27799442"
         id="path982" />
      <path
         d="m 55.823357,104.81405 -0.09985,0.58315 -0.01598,0.10784 -0.107842,0.024 q -0.195712,0.0439 -2.408461,1.11836 -0.27959,0.1358 -0.639061,0.22367 -0.359472,0.0879 -0.794833,0.13181 -0.431366,0.0399 -0.950603,0.0399 h -0.211689 q -0.09985,0 -0.179736,-0.0519 -0.171748,-0.10784 -0.171748,-0.4034 v -0.1358 q 0,-0.30755 0.171748,-0.41939 0.07988,-0.0479 0.179736,-0.0479 h 0.175742 q 1.238181,0 1.789371,-0.1997 0.722938,-0.26362 1.354011,-0.5472 -0.135801,-0.0439 -0.295566,-0.10385 -0.155771,-0.0639 -0.339501,-0.14379 -0.367461,-0.16376 -0.623085,-0.25961 -0.25163,-0.0959 -0.331513,-0.10385 -0.03195,-0.004 -0.0679,-0.004 -0.359472,0 -0.798827,0.57915 l -0.09985,0.12782 -0.127812,-0.0999 -0.459325,-0.35148 -0.119824,-0.0959 0.08787,-0.12382 q 0.415389,-0.58314 0.675008,-0.77087 0.395419,-0.28757 0.874715,-0.28757 0.383437,0 0.958592,0.25163 0.167753,0.0759 0.98655,0.46332 0.742909,0.35148 1.421911,0.31154 l 0.199707,-0.012 z m -2.304614,3.00758 0.355477,0.35548 q 0.04793,0.0519 0.06391,0.10784 0.01997,0.0599 0,0.11583 -0.01598,0.0599 -0.05991,0.10784 l -0.371454,0.37146 q -0.08388,0.0799 -0.175742,0.0799 -0.09186,0.004 -0.171747,-0.0799 l -0.371455,-0.37146 q -0.07589,-0.0759 -0.07189,-0.17174 0.004,-0.0919 0.08388,-0.17175 l 0.347489,-0.34749 q 0.08388,-0.0799 0.18373,-0.0799 0.09985,0 0.187725,0.0839 z"
         style="font-style:normal;font-variant:normal;font-weight:bold;font-stretch:normal;font-size:8.17998219px;font-family:samim;-inkscape-font-specification:'samim Bold';fill:#6a7076;fill-opacity:1;stroke-width:0.27799442"
         id="path984" />
      <path
         d="m 50.63897,105.98433 q 0.09586,0 0.175741,0.0439 0.175742,0.10784 0.175742,0.42338 v 0.1358 q 0,0.29157 -0.167753,0.4034 -0.07988,0.0519 -0.18373,0.0519 h -0.159766 q -0.902674,0 -1.294099,-0.60312 -0.263612,-0.41139 -0.291571,-1.27412 l -0.11583,-3.59073 -0.004,-0.10784 0.09985,-0.0439 0.690985,-0.30355 0.223671,-0.0998 v 0.24763 3.83836 q 0,0.47131 0.16376,0.67501 0.167753,0.2037 0.523231,0.2037 z"
         style="font-style:normal;font-variant:normal;font-weight:bold;font-stretch:normal;font-size:8.17998219px;font-family:samim;-inkscape-font-specification:'samim Bold';fill:#6a7076;fill-opacity:1;stroke-width:0.27799442"
         id="path986" />
      <path
         d="m 46.676789,106.12413 0.223671,-0.004 q 0.227666,0 0.407402,0.028 0.18373,0.028 0.327518,0.0839 0.251631,0.10385 0.383437,0.32752 0.131807,0.22367 0.131807,0.53521 0.004,0.57516 -0.351484,1.01851 -0.750897,0.94261 -2.46438,0.9466 -0.159765,0 -0.311542,-0.012 -0.147783,-0.008 -0.291571,-0.028 -0.139795,-0.016 -0.271601,-0.0439 -0.131807,-0.028 -0.255625,-0.0679 -0.119824,-0.0359 -0.227665,-0.0839 -1.118357,-0.49128 -1.230193,-1.79336 -0.01198,-0.1358 -0.01198,-0.27161 -0.004,-0.83477 0.519237,-1.94514 l 0.06391,-0.14379 0.143789,0.0639 0.547196,0.23965 0.147783,0.0679 -0.06391,0.14379 q -0.07189,0.16376 -0.131806,0.32352 -0.05991,0.15977 -0.103847,0.31154 -0.04394,0.15178 -0.07589,0.29956 -0.02796,0.14379 -0.04393,0.28359 -0.01598,0.1358 -0.01997,0.2716 0,0.0319 0,0.0639 0.004,0.66702 0.399413,0.98256 0.395419,0.31953 1.250164,0.31554 1.15031,-0.008 1.677535,-0.51525 0.06391,-0.0639 0.103847,-0.11982 0.04394,-0.0559 0.05592,-0.0919 0.01598,-0.0359 0.01997,-0.0599 0,-0.032 -0.004,-0.0519 0,-0.02 -0.01598,-0.0359 -0.01198,-0.012 -0.04793,-0.02 -0.03595,-0.004 -0.103848,-0.004 l -0.439354,-0.004 q -0.555185,0 -0.866727,-0.24763 -0.311542,-0.24764 -0.315536,-0.71895 0,-0.0639 0.004,-0.1318 0.008,-0.0679 0.01598,-0.13181 0.01198,-0.0679 0.02796,-0.1358 0.01598,-0.0679 0.03595,-0.1358 0.02396,-0.0679 0.05192,-0.1358 0.02796,-0.0679 0.05991,-0.1358 0.03195,-0.0679 0.0679,-0.1358 0.03994,-0.0679 0.07988,-0.1358 0.04393,-0.0719 0.09186,-0.1398 0.211689,-0.30355 0.48329,-0.52323 0.311542,-0.24364 0.659032,-0.37145 0.351483,-0.13181 0.73492,-0.1398 l 0.23166,-0.004 0.219677,-0.004 -0.0679,0.21169 -0.235654,0.76688 -0.03595,0.11183 h -0.119824 -0.05592 q -0.103847,0 -0.211689,0.024 -0.103847,0.024 -0.215683,0.0719 -0.107842,0.0479 -0.219677,0.12382 -0.191719,0.12781 -0.331513,0.27959 -0.135801,0.15178 -0.219678,0.32752 -0.05991,0.11982 -0.07988,0.23965 v 0.02 q 0.008,0.004 0.03195,0.016 0.02796,0.008 0.09186,0.02 0.0679,0.008 0.151777,0.004 z"
         style="font-style:normal;font-variant:normal;font-weight:bold;font-stretch:normal;font-size:8.17998219px;font-family:samim;-inkscape-font-specification:'samim Bold';fill:#6a7076;fill-opacity:1;stroke-width:0.27799442"
         id="path988" />
      <path
         d="m 39.487352,106.68331 q -0.151777,0.12781 -0.375448,0.20769 -0.223672,0.0799 -0.507255,0.11583 -0.279589,0.0359 -0.643055,0.0359 h -0.34749 q -0.111836,0 -0.191718,-0.0559 -0.167754,-0.11184 -0.167754,-0.39941 v -0.1358 q 0,-0.30755 0.171748,-0.41939 0.07988,-0.0479 0.179736,-0.0479 h 0.371454 q 0.359472,0 0.455331,-0.016 0.375449,-0.0519 0.459325,-0.25163 0.07189,-0.17175 0.07189,-0.48729 0,-0.19571 -0.01598,-0.39542 -0.01598,-0.2037 -0.05192,-0.4074 -0.03195,-0.2037 -0.08388,-0.41139 l -0.03994,-0.15977 0.159766,-0.0359 0.603114,-0.1358 0.139794,-0.032 0.04793,0.1358 q 0.07189,0.21568 0.119824,0.44335 0.05192,0.22367 0.07589,0.46332 0.02397,0.23565 0.02397,0.48728 0,1.10238 -0.455331,1.5018 z m 0.155771,-4.67314 0.351484,0.35548 q 0.07589,0.0759 0.07589,0.16775 0.004,0.0879 -0.07589,0.16376 l -0.371455,0.37146 q -0.07589,0.0799 -0.171747,0.0839 -0.09186,0 -0.167754,-0.0839 l -0.371454,-0.37146 q -0.05192,-0.0479 -0.0679,-0.10784 -0.01598,-0.0599 0.004,-0.11982 0.01997,-0.0599 0.07589,-0.11583 l 0.343496,-0.34749 q 0.08787,-0.0799 0.187724,-0.0799 0.09985,0 0.187724,0.0839 z m -1.282116,0 0.351483,0.35548 q 0.07589,0.0759 0.07589,0.16775 0.004,0.0879 -0.07589,0.16376 l -0.371454,0.37146 q -0.07589,0.0799 -0.171748,0.0839 -0.09186,0 -0.167753,-0.0839 l -0.371454,-0.37146 q -0.07988,-0.0759 -0.07189,-0.16775 0.004,-0.0959 0.08388,-0.17574 l 0.343495,-0.34749 q 0.08787,-0.0799 0.187725,-0.0799 0.09985,0 0.187724,0.0839 z"
         style="font-style:normal;font-variant:normal;font-weight:bold;font-stretch:normal;font-size:8.17998219px;font-family:samim;-inkscape-font-specification:'samim Bold';fill:#6a7076;fill-opacity:1;stroke-width:0.27799442"
         id="path990" />
      <path
         d="m 36.939099,100.16888 -3.01557,1.5617 -0.06391,0.028 v -0.0679 -0.52323 -0.028 l 0.02397,-0.012 3.011575,-1.561707 0.06391,-0.02796 v 0.0679 0.527226 0.024 z m 0.03994,0.6111 v 0.73891 0.0959 l -0.08787,0.0439 -2.440414,1.25416 2.460385,2.72799 q 0.291572,0.32752 0.623085,0.3395 l 0.123818,0.004 q 0.01598,0 0.03195,0.004 0.01997,0 0.03595,0.004 0.01997,0.004 0.03595,0.012 0.01598,0.004 0.03195,0.012 0.01997,0.008 0.03595,0.016 0.09586,0.0639 0.131807,0.17175 0.03994,0.10784 0.03994,0.24764 v 0.1358 q 0,0.0639 -0.008,0.11982 -0.004,0.0519 -0.02396,0.10784 -0.01598,0.0559 -0.05192,0.10385 -0.03595,0.0439 -0.08787,0.0759 -0.07988,0.0519 -0.18373,0.0479 l -0.163759,-0.004 q -0.706961,-0.02 -1.469841,-0.89868 -0.18373,0.46332 -0.690984,0.683 -0.507255,0.21568 -1.31407,0.21568 l -1.21821,0.004 q -1.393952,0.004 -2.092925,-0.29557 -1.102381,-0.46731 -1.274128,-1.5657 -0.008,-0.0759 -0.01598,-0.15177 -0.04793,-0.55918 0.131806,-1.19425 l 0.03994,-0.15178 0.151777,0.0399 0.571161,0.15178 0.1358,0.0359 -0.01997,0.14379 q -0.08388,0.54719 -0.0719,0.79483 0.01997,0.45134 0.311542,0.71495 0.295566,0.26361 0.906668,0.35947 0.41539,0.0599 1.010516,0.0599 l 1.773394,-0.004 q 0.407402,-0.004 0.611103,-0.11583 0.2037,-0.11583 0.255624,-0.33551 0.05192,-0.23565 -0.219677,-0.53921 l -1.529753,-1.6975 -0.03595,-0.0399 -0.004,-0.0559 q -0.01997,-0.35548 0.05192,-0.65903 0.01997,-0.0879 0.06391,-0.16376 0.04394,-0.0759 0.107841,-0.1358 0.0679,-0.0599 0.151777,-0.10385 l 2.94767,-1.49381 0.231659,-0.11982 z"
         style="font-style:normal;font-variant:normal;font-weight:bold;font-stretch:normal;font-size:8.17998219px;font-family:samim;-inkscape-font-specification:'samim Bold';fill:#6a7076;fill-opacity:1;stroke-width:0.27799442"
         id="path992" />
      <path
         d="m 23.339078,101.68665 1.525758,4.22978 q 0.363466,-0.0879 0.543202,-0.44335 0.18373,-0.36346 0.159766,-1.04646 l -0.08787,-2.8558 -0.004,-0.10784 0.09985,-0.0439 0.694979,-0.30355 0.223671,-0.0959 v 0.24364 3.42696 q 0,0.61111 -0.167753,1.06644 -0.167754,0.45932 -0.511249,0.75089 -0.643056,0.55119 -1.697506,0.5472 -0.766874,-0.004 -1.262146,-0.15577 l -0.111836,-0.0359 v -0.11583 -0.65903 -0.19172 l 0.191719,0.0359 q 0.61909,0.12382 1.030486,0.13181 l -1.485817,-3.81839 -0.03994,-0.10785 0.08787,-0.0679 0.559179,-0.45533 0.179736,-0.14379 z"
         style="font-style:normal;font-variant:normal;font-weight:bold;font-stretch:normal;font-size:8.17998219px;font-family:samim;-inkscape-font-specification:'samim Bold';fill:#6a7076;fill-opacity:1;stroke-width:0.27799442"
         id="path994" />
      <path
         d="m 21.433879,106.68331 q -0.151777,0.12781 -0.375448,0.20769 -0.223671,0.0799 -0.507255,0.11583 -0.279589,0.0359 -0.643055,0.0359 h -0.347489 q -0.111836,0 -0.191719,-0.0559 -0.167753,-0.11184 -0.167753,-0.39941 v -0.1358 q 0,-0.30755 0.171747,-0.41939 0.07988,-0.0479 0.179736,-0.0479 h 0.371455 q 0.359471,0 0.455331,-0.016 0.375448,-0.0519 0.459325,-0.25163 0.07189,-0.17175 0.07189,-0.48729 0,-0.19571 -0.01598,-0.39542 -0.01598,-0.2037 -0.05192,-0.4074 -0.03195,-0.2037 -0.08388,-0.41139 l -0.03994,-0.15977 0.159765,-0.0359 0.603114,-0.1358 0.139795,-0.032 0.04793,0.1358 q 0.07189,0.21568 0.119824,0.44335 0.05192,0.22367 0.07589,0.46332 0.02397,0.23565 0.02397,0.48728 0,1.10238 -0.455332,1.5018 z m 0.159766,1.13832 0.351483,0.35548 q 0.07589,0.0759 0.07589,0.16376 0.004,0.0919 -0.07589,0.16775 l -0.371454,0.37146 q -0.07589,0.0799 -0.171748,0.0799 -0.09186,0.004 -0.167753,-0.0799 l -0.371454,-0.37146 q -0.05192,-0.0479 -0.0679,-0.10784 -0.01598,-0.0599 0.004,-0.11982 0.01997,-0.0599 0.07589,-0.11583 l 0.343495,-0.34749 q 0.08787,-0.0799 0.187725,-0.0799 0.09985,0 0.187724,0.0839 z m -1.282117,0 0.351484,0.35548 q 0.07589,0.0759 0.07589,0.16376 0.004,0.0919 -0.07589,0.16775 l -0.371454,0.37146 q -0.07589,0.0799 -0.171748,0.0799 -0.09187,0.004 -0.167753,-0.0799 l -0.371455,-0.37146 q -0.07988,-0.0759 -0.07189,-0.17174 0.004,-0.0919 0.08388,-0.17175 l 0.343495,-0.34749 q 0.08787,-0.0799 0.187724,-0.0799 0.09985,0 0.187724,0.0839 z"
         style="font-style:normal;font-variant:normal;font-weight:bold;font-stretch:normal;font-size:8.17998219px;font-family:samim;-inkscape-font-specification:'samim Bold';fill:#6a7076;fill-opacity:1;stroke-width:0.27799442"
         id="path996" />
      <path
         d="m 18.989468,105.6688 q 0.04793,0.11183 0.111836,0.17973 0.0679,0.0639 0.151777,0.0999 0.08787,0.0319 0.203701,0.0319 l 0.1358,0.004 q 0.09586,0 0.171748,0.0479 0.05192,0.032 0.08787,0.0799 0.03595,0.0439 0.05592,0.10384 0.01997,0.0559 0.02396,0.11184 0.008,0.0559 0.008,0.12382 v 0.1358 q 0,0.29556 -0.16376,0.4034 -0.04394,0.028 -0.09187,0.04 -0.04793,0.012 -0.09985,0.012 l -0.127812,-0.004 q -0.243642,0 -0.411396,-0.0639 -0.08388,1.05445 -0.742908,1.59366 -0.659032,0.5392 -1.845289,0.5432 -1.086404,0 -1.745436,-0.50326 -0.774862,-0.59113 -0.770867,-1.79736 0,-0.85874 0.383436,-1.72547 l 0.05991,-0.1358 0.139795,0.0519 0.595126,0.21568 0.155771,0.0559 -0.06391,0.15577 q -0.155772,0.37545 -0.23166,0.70696 -0.07589,0.32752 -0.07589,0.60711 0,0.69498 0.375449,1.02649 0.379442,0.33151 1.190251,0.33151 0.870721,-0.004 1.274128,-0.35547 0.407402,-0.34749 0.407402,-1.07443 0,-0.17174 -0.04394,-0.37544 -0.04393,-0.2077 -0.1358,-0.45534 -0.09186,-0.24763 -0.227666,-0.52722 l -0.05592,-0.11184 0.09187,-0.0799 0.547196,-0.4793 0.179736,-0.15577 0.07589,0.22367 q 0.05192,0.14779 0.151777,0.39143 0.103847,0.23965 0.255624,0.56717 z m -2.384496,-1.59766 0.355477,0.35548 q 0.04793,0.0519 0.06391,0.11184 0.01997,0.0559 0,0.11583 -0.01598,0.0559 -0.05991,0.10384 l -0.371454,0.37146 q -0.08388,0.0799 -0.175742,0.0839 -0.09186,0 -0.171747,-0.0839 l -0.371455,-0.37146 q -0.07589,-0.0759 -0.07189,-0.16775 0.004,-0.0959 0.08388,-0.17574 l 0.347489,-0.34749 q 0.08388,-0.0799 0.18373,-0.0799 0.09985,0 0.187725,0.0839 z"
         style="font-style:normal;font-variant:normal;font-weight:bold;font-stretch:normal;font-size:8.17998219px;font-family:samim;-inkscape-font-specification:'samim Bold';fill:#6a7076;fill-opacity:1;stroke-width:0.27799442"
         id="path998" />
      <path
         d="m 10.114509,101.41505 0.690985,-0.29956 0.223671,-0.0959 v 0.24364 5.61175 0.15977 H 10.8694 10.350163 10.198386 l -0.008,-0.15178 -0.171748,-5.31619 -0.004,-0.10784 z"
         style="font-style:normal;font-variant:normal;font-weight:bold;font-stretch:normal;font-size:8.17998219px;font-family:samim;-inkscape-font-specification:'samim Bold';fill:#6a7076;fill-opacity:1;stroke-width:0.27799442"
         id="path1000" />
      <path
         d="m 3.1727079,105.98433 h 0.3474895 q 0.2636127,0 0.4273721,-0.0679 0.1677536,-0.0679 0.2516303,-0.1997 0.087871,-0.1358 0.1078416,-0.35149 l 0.0679,-0.7469 0.015977,-0.14379 h 0.1437887 0.4713076 0.1397946 l 0.019971,0.1358 0.099853,0.7509 q 0.043935,0.3395 0.1997066,0.48728 0.1557711,0.14779 0.4513369,0.14779 0.1597652,0 0.2636127,-0.0559 0.1078415,-0.0559 0.1757418,-0.19172 0.0679,-0.1398 0.087871,-0.37145 l 0.075889,-0.75889 0.011982,-0.14379 h 0.1477829 0.4713075 0.1358005 l 0.019971,0.1358 0.1038474,0.76688 q 0.04793,0.34748 0.1837301,0.49527 0.1397946,0.14379 0.3874308,0.13979 0.1477829,0 0.2316596,-0.0479 0.087871,-0.0479 0.1397946,-0.14778 0.1437888,-0.28358 0.051924,-0.87072 -0.04793,-0.31554 -0.1557712,-0.78285 l -0.031953,-0.1398 0.1397946,-0.0479 0.6270787,-0.1997 0.1477829,-0.0479 0.051924,0.14778 q 0.1757418,0.49527 0.2196772,1.13433 0.00799,0.13581 0.00799,0.25962 0.00399,0.41939 -0.083877,0.74691 -0.087871,0.32751 -0.2636127,0.55518 -0.1757418,0.22767 -0.4473427,0.34749 -0.271601,0.11982 -0.6230846,0.11982 -0.6909849,0.008 -1.0784156,-0.45932 -0.3594719,0.46332 -1.0145096,0.46332 -0.7668733,-0.004 -1.1662865,-0.45134 -0.4473428,0.45134 -1.2222044,0.45134 H 3.1727079 q -0.099853,0 -0.1797359,-0.0519 -0.1717477,-0.10784 -0.1717477,-0.4034 v -0.1358 q 0,-0.30755 0.1717477,-0.41939 0.079883,-0.0479 0.1797359,-0.0479 z"
         style="font-style:normal;font-variant:normal;font-weight:bold;font-stretch:normal;font-size:8.17998219px;font-family:samim;-inkscape-font-specification:'samim Bold';fill:#6a7076;fill-opacity:1;stroke-width:0.27799442"
         id="path1002" />
      <path
         d="m 3.2206375,105.98433 q 0.095859,0 0.1717477,0.0479 0.1757418,0.10784 0.1757418,0.41939 v 0.1358 q 0,0.29556 -0.1677535,0.4034 -0.083877,0.0519 -0.1877242,0.0519 l -0.2516304,-0.004 q -0.9226444,-0.008 -1.3859637,-0.77486 -0.2356538,0.19172 -0.64704941,0.38743 -0.83477357,0.39143 -2.63213289,0.39143 -1.389958,0 -2.0929252,-0.29557 -0.5831432,-0.23965 -0.9106621,-0.67501 -0.3275188,-0.43536 -0.3794425,-1.04246 -0.023965,-0.27959 0.00799,-0.57915 0.031953,-0.29956 0.1238181,-0.6151 l 0.039941,-0.15178 0.151777,0.0399 0.5711609,0.15178 0.1358004,0.0359 -0.019971,0.14379 q -0.027959,0.17973 -0.04793,0.3355 -0.015976,0.15178 -0.023965,0.26761 -0.00399,0.11583 0,0.19172 0.019971,0.45533 0.3115423,0.72294 0.2915716,0.26361 0.906668,0.35148 0.3994131,0.0559 1.2821163,0.0559 1.60963517,0 2.25668454,-0.30356 0.71095546,-0.3395 0.81080876,-1.11436 l 0.015977,-0.13979 h 0.1437888 0.48329 0.1477828 l 0.011982,0.14379 q 0.011982,0.17574 0.027959,0.32752 0.019971,0.15177 0.039941,0.27559 0.019971,0.11982 0.039941,0.21568 0.023965,0.0919 0.04793,0.15577 0.079883,0.22368 0.2396479,0.33152 0.1637594,0.10384 0.4393545,0.10784 z m -3.84235489,-3.43495 0.35148361,0.35548 q 0.0758885,0.0759 0.0758885,0.16775 0.003994,0.0879 -0.0758885,0.16376 l -0.37145427,0.37145 q -0.0758885,0.0799 -0.17174768,0.0839 -0.091865,0 -0.16775354,-0.0839 l -0.37145423,-0.37145 q -0.051924,-0.0479 -0.0679,-0.10784 -0.015977,-0.0599 0.00399,-0.11983 0.019971,-0.0599 0.075889,-0.11583 l 0.3434953,-0.34748 q 0.0878709,-0.0799 0.18772421,-0.0799 0.0998533,0 0.1877242,0.0839 z m -1.28211631,0 0.3514836,0.35548 q 0.075889,0.0759 0.075889,0.16775 0.00399,0.0879 -0.075889,0.16376 l -0.3714543,0.37145 q -0.075889,0.0799 -0.1717477,0.0839 -0.091865,0 -0.1677535,-0.0839 l -0.3714543,-0.37145 q -0.079883,-0.0759 -0.075889,-0.16775 0.00799,-0.0959 0.087871,-0.17575 l 0.3434954,-0.34748 q 0.087871,-0.0799 0.1877242,-0.0799 0.099853,0 0.1877242,0.0839 z"
         style="font-style:normal;font-variant:normal;font-weight:bold;font-stretch:normal;font-size:8.17998219px;font-family:samim;-inkscape-font-specification:'samim Bold';fill:#6a7076;fill-opacity:1;stroke-width:0.27799442"
         id="path1004" />
    </g>
  </g>
</svg>
