<?xml version="1.0" encoding="UTF-8" standalone="no"?>
<!-- Created with Inkscape (http://www.inkscape.org/) -->

<svg
   xmlns:dc="http://purl.org/dc/elements/1.1/"
   xmlns:cc="http://creativecommons.org/ns#"
   xmlns:rdf="http://www.w3.org/1999/02/22-rdf-syntax-ns#"
   xmlns:svg="http://www.w3.org/2000/svg"
   xmlns="http://www.w3.org/2000/svg"
   xmlns:sodipodi="http://sodipodi.sourceforge.net/DTD/sodipodi-0.dtd"
   xmlns:inkscape="http://www.inkscape.org/namespaces/inkscape"
   width="155.50352mm"
   height="72.309921mm"
   viewBox="0 0 155.50353 72.309921"
   version="1.1"
   id="svg73"
   inkscape:version="0.92.2 (5c3e80d, 2017-08-06)"
   sodipodi:docname="logo.svm.svg">
  <defs
     id="defs67" />
  <sodipodi:namedview
     id="base"
     pagecolor="#ffffff"
     bordercolor="#666666"
     borderopacity="1.0"
     inkscape:pageopacity="0.0"
     inkscape:pageshadow="2"
     inkscape:zoom="1.979899"
     inkscape:cx="198.33444"
     inkscape:cy="115.12673"
     inkscape:document-units="mm"
     inkscape:current-layer="layer1"
     showgrid="false"
     inkscape:window-width="1853"
     inkscape:window-height="1025"
     inkscape:window-x="67"
     inkscape:window-y="27"
     inkscape:window-maximized="1" />
  <metadata
     id="metadata70">
    <rdf:RDF>
      <cc:Work
         rdf:about="">
        <dc:format>image/svg+xml</dc:format>
        <dc:type
           rdf:resource="http://purl.org/dc/dcmitype/StillImage" />
        <dc:title />
      </cc:Work>
    </rdf:RDF>
  </metadata>
  <g
     inkscape:label="Layer 1"
     inkscape:groupmode="layer"
     id="layer1"
     transform="translate(6.6925845,-52.202179)">
    <g
       transform="matrix(0.35277777,0,0,-0.35277777,147.11833,116.35482)"
       style="fill:#000000;fill-opacity:1"
       id="g633">
      <g
         transform="translate(-58.196381,175.33301)"
         id="g612">
        <path
           inkscape:connector-curvature="0"
           id="path614"
           style="fill:#eec600;fill-opacity:1;fill-rule:nonzero;stroke:none"
           d="M 0,0 -21.514,-13.724 -34.019,6.517 -46.524,-13.724 -68.037,0 l 9.273,-30.601 24.745,1.375 24.746,-1.375 z" />
      </g>
      <g
         transform="translate(-21.196773,69.388103)"
         id="g616">
        <path
           inkscape:connector-curvature="0"
           id="path618"
           style="fill:#f4c3a8;fill-opacity:1;fill-rule:nonzero;stroke:none"
           d="M 0,0 C 2.875,1.762 9.44,3.512 15.617,2.333 19.976,1.501 23.823,-1.259 25.13,-5.471 28.468,-16.228 21.715,-22.366 12.204,-23.887 7.326,-24.666 4.405,-24.501 -0.649,-23.832 -1.049,-16.366 -1.211,-8.471 0,0" />
      </g>
      <g
         transform="translate(-163.32908,69.388103)"
         id="g620">
        <path
           inkscape:connector-curvature="0"
           id="path622"
           style="fill:#f4c3a8;fill-opacity:1;fill-rule:nonzero;stroke:none"
           d="m 0,0 c -2.875,1.762 -9.44,3.512 -15.617,2.333 -4.359,-0.832 -8.206,-3.592 -9.513,-7.804 -3.338,-10.757 3.415,-16.895 12.926,-18.416 4.878,-0.779 7.799,-0.614 12.853,0.055 C 1.049,-16.366 1.211,-8.471 0,0" />
      </g>
      <g
         transform="translate(-15.354791,87.470904)"
         id="g624">
        <path
           inkscape:connector-curvature="0"
           id="path626"
           style="fill:#f9dbcc;fill-opacity:1;fill-rule:nonzero;stroke:none"
           d="m 0,0 c -2.226,19.288 -11.87,30.044 -26.336,40.059 -14.466,10.015 -27.819,11.499 -33.754,13.353 -4.348,1.359 -27.702,1.855 -33.637,0 -5.935,-1.854 -19.288,-3.338 -33.754,-13.353 -14.466,-10.015 -24.11,-20.771 -26.335,-40.059 -2.226,-19.288 -1.593,-66.09 8.16,-82.345 6.08,-10.134 45.5,-11.385 69.881,-11.16 23.502,-0.225 61.534,1.026 67.615,11.16 C 1.593,-66.09 2.226,-19.288 0,0" />
      </g>
      <g
         transform="translate(-33.097383,62.43321)"
         id="g628">
        <path
           inkscape:connector-curvature="0"
           id="path630"
           style="fill:#211915;fill-opacity:1;fill-rule:nonzero;stroke:none"
           d="m 0,0 c 0,-5.941 -4.816,-10.757 -10.757,-10.757 -5.941,0 -10.757,4.816 -10.757,10.757 0,5.941 4.816,10.757 10.757,10.757 C -4.816,10.757 0,5.941 0,0" />
      </g>
      <g
         transform="translate(-37.115688,63.127898)"
         id="g632">
        <path
           inkscape:connector-curvature="0"
           id="path634"
           style="fill:#ffffff;fill-opacity:1;fill-rule:nonzero;stroke:none"
           d="m 0,0 c 0,-1.963 -1.591,-3.555 -3.555,-3.555 -1.963,0 -3.554,1.592 -3.554,3.555 0,1.963 1.591,3.555 3.554,3.555 C -1.591,3.555 0,1.963 0,0" />
      </g>
      <g
         transform="translate(-126.56988,62.43321)"
         id="g636">
        <path
           inkscape:connector-curvature="0"
           id="path638"
           style="fill:#211915;fill-opacity:1;fill-rule:nonzero;stroke:none"
           d="m 0,0 c 0,-5.941 -4.816,-10.757 -10.757,-10.757 -5.941,0 -10.757,4.816 -10.757,10.757 0,5.941 4.816,10.757 10.757,10.757 C -4.816,10.757 0,5.941 0,0" />
      </g>
      <g
         transform="translate(-136.58831,63.127898)"
         id="g640">
        <path
           inkscape:connector-curvature="0"
           id="path642"
           style="fill:#ffffff;fill-opacity:1;fill-rule:nonzero;stroke:none"
           d="m 0,0 c 0,-1.963 -1.591,-3.555 -3.555,-3.555 -1.963,0 -3.554,1.592 -3.554,3.555 0,1.963 1.591,3.555 3.554,3.555 C -1.591,3.555 0,1.963 0,0" />
      </g>
      <g
         transform="translate(-117.5442,78.661111)"
         id="g644"
         style="fill:#000000;fill-opacity:1">
        <path
           inkscape:connector-curvature="0"
           id="path646"
           style="fill:#000000;fill-opacity:1;fill-rule:nonzero;stroke:none"
           d="m 0,0 h -31.529 c -3.38,0 -6.12,2.74 -6.12,6.12 0,3.38 2.74,6.12 6.12,6.12 H 0 C 3.38,12.24 6.12,9.5 6.12,6.12 6.12,2.74 3.38,0 0,0" />
      </g>
      <g
         transform="translate(-66.842989,56.931023)"
         id="g656">
        <path
           inkscape:connector-curvature="0"
           id="path658"
           style="fill:#f2a899;fill-opacity:1;fill-rule:nonzero;stroke:none"
           d="m 0,0 c -2.72,6.924 -25.717,35.609 -25.717,35.609 l -0.005,-0.023 -0.005,0.023 c 0,0 -22.998,-28.685 -25.718,-35.609 -2.72,-6.924 -2.529,-9.462 6.182,-10.88 7.551,-1.23 13.488,-1.683 17.252,-1.844 l 0.006,-0.073 c 0,0 0.797,-0.026 2.283,0.002 1.486,-0.028 2.282,-0.002 2.282,-0.002 l 0.006,0.073 c 3.764,0.161 9.701,0.614 17.252,1.844 C 2.53,-9.462 2.72,-6.924 0,0" />
      </g>
      <g
         transform="translate(-35.199183,78.661111)"
         id="g660"
         style="fill:#000000;fill-opacity:1">
        <path
           inkscape:connector-curvature="0"
           id="path662"
           style="fill:#000000;fill-opacity:1;fill-rule:nonzero;stroke:none"
           d="m 0,0 h -31.528 c -3.381,0 -6.121,2.74 -6.121,6.12 0,3.38 2.74,6.12 6.121,6.12 H 0 C 3.38,12.24 6.12,9.5 6.12,6.12 6.12,2.74 3.38,0 0,0" />
      </g>
      <g
         transform="translate(-10.65637,108.98411)"
         id="g664"
         style="fill:#42464a;fill-opacity:1">
        <path
           inkscape:connector-curvature="0"
           id="path666"
           style="fill:#42464a;fill-opacity:1;fill-rule:nonzero;stroke:none"
           d="m 0,0 c -1.236,13.601 -27.696,33.878 -50.693,39.071 -17.496,3.95 -26.96,4.179 -30.495,4.063 -3.534,0.116 -12.998,-0.113 -30.495,-4.063 -22.997,-5.193 -49.456,-25.47 -50.692,-39.071 -1.237,-13.6 2.816,-43.213 2.816,-43.213 0,0 3.366,1.917 10.042,12.055 6.024,9.147 5.808,27.145 5.708,30.579 2.225,-0.697 5.277,-1.121 9.535,-0.905 14.589,0.742 26.212,4.946 31.405,6.924 5.192,1.978 16.073,6.43 16.073,6.43 0,0 -10.633,-6.182 -1.731,-10.386 8.902,-4.204 28.437,0.989 37.34,4.204 6.429,2.321 12.068,5.408 14.714,6.949 C -25.513,8.876 -18.546,0 -18.546,0 c 0,0 -0.989,-21.019 5.687,-31.158 6.677,-10.138 9.397,-11.869 9.397,-11.869 0,0 4.698,29.427 3.462,43.027" />
      </g>
      <path
         d="m 0,0 c 0.072,3.063 -0.136,6.217 -0.727,9.389 -0.632,3.155 -1.605,6.329 -2.987,9.442 -1.468,3.12 -3.226,5.984 -5.29,8.727 -4.157,5.426 -9.459,10.022 -15.216,13.504 -5.76,3.517 -11.959,5.995 -18.169,7.524 -6.28,1.546 -12.32,2.058 -18.001,1.939 -5.657,-0.165 -10.906,-0.968 -15.578,-2.302 -4.681,-1.33 -8.821,-3.149 -12.413,-5.408 -1.515,-0.964 -2.628,-2.044 -3.402,-3.181 -0.775,1.137 -1.887,2.217 -3.402,3.181 -3.592,2.259 -7.733,4.078 -12.414,5.408 -4.671,1.334 -9.92,2.137 -15.577,2.302 -5.682,0.119 -11.722,-0.393 -18.001,-1.939 -6.211,-1.529 -12.41,-4.007 -18.169,-7.524 -5.758,-3.482 -11.06,-8.078 -15.217,-13.504 -2.063,-2.743 -3.821,-5.607 -5.289,-8.727 -1.382,-3.113 -2.355,-6.287 -2.987,-9.442 -0.592,-3.172 -0.8,-6.326 -0.727,-9.389 0.104,-3.071 0.587,-6.052 1.308,-8.872 0.749,-2.824 1.877,-5.457 3.181,-7.868 1.346,-2.407 3.015,-4.502 4.76,-6.383 -1.369,2.082 -2.558,4.349 -3.239,6.839 -0.664,2.485 -1.057,5.07 -0.949,7.695 0.106,2.616 0.498,5.228 1.286,7.742 0.798,2.509 1.879,4.913 3.215,7.128 1.382,2.196 2.997,4.187 4.769,5.894 1.741,1.665 3.854,3.179 5.946,4.433 1.043,0.647 2.166,1.187 3.245,1.736 1.138,0.491 2.232,0.994 3.392,1.396 2.292,0.829 4.602,1.518 6.965,2.001 2.357,0.488 4.705,0.856 7.041,1.101 2.342,0.225 4.648,0.365 6.908,0.427 4.504,0.084 9.053,-0.06 13.408,-0.168 8.723,-0.214 17.076,-0.101 24.07,2.446 2.782,0.998 5.093,2.867 6.477,5.101 1.383,-2.234 3.694,-4.103 6.476,-5.101 6.994,-2.547 15.347,-2.66 24.07,-2.446 4.355,0.108 8.904,0.252 13.409,0.168 2.26,-0.062 4.565,-0.202 6.908,-0.427 2.335,-0.245 4.684,-0.613 7.04,-1.101 2.363,-0.483 4.673,-1.172 6.966,-2.001 1.159,-0.402 2.254,-0.905 3.392,-1.396 1.079,-0.549 2.202,-1.089 3.245,-1.736 2.092,-1.254 4.205,-2.768 5.945,-4.433 1.773,-1.707 3.388,-3.698 4.769,-5.894 1.337,-2.215 2.417,-4.619 3.215,-7.128 0.788,-2.514 1.181,-5.126 1.286,-7.742 0.109,-2.625 -0.285,-5.21 -0.948,-7.695 -0.681,-2.49 -1.87,-4.757 -3.24,-6.839 1.745,1.881 3.415,3.976 4.76,6.383 1.304,2.411 2.433,5.044 3.182,7.868 0.72,2.82 1.203,5.801 1.308,8.872"
         style="fill:#000000;fill-opacity:1;fill-rule:nonzero;stroke:none"
         id="path48"
         inkscape:connector-curvature="0" />
    </g>
    <g
       aria-label="سلطون"
       style="font-style:normal;font-weight:normal;font-size:20.52849388px;line-height:1.25;font-family:sans-serif;letter-spacing:0px;word-spacing:0px;fill:#000000;fill-opacity:1;stroke:none;stroke-width:0.51321232"
       id="text133"
       transform="translate(-80.886905,-51.555951)">
      <path
         d="m 134.06916,138.83386 h 1.16275 q 0.88208,0 1.43004,-0.2272 0.56133,-0.2272 0.84199,-0.66824 0.29403,-0.45441 0.36085,-1.17612 l 0.22721,-2.49923 0.0535,-0.48114 h 0.48113 1.57706 0.46777 l 0.0668,0.45441 0.33412,2.5126 q 0.14701,1.13602 0.66825,1.63052 0.52123,0.4945 1.51023,0.4945 0.5346,0 0.88208,-0.18711 0.36086,-0.18711 0.58806,-0.64151 0.2272,-0.46778 0.29403,-1.24294 l 0.25393,-2.53933 0.0401,-0.48114 h 0.49451 1.57705 0.45441 l 0.0668,0.45441 0.34748,2.56606 q 0.16038,1.16275 0.61479,1.65725 0.46777,0.48113 1.2964,0.46777 0.4945,0 0.77516,-0.16038 0.29403,-0.16038 0.46777,-0.4945 0.48114,-0.94891 0.17374,-2.91355 -0.16037,-1.05583 -0.52123,-2.61952 l -0.10692,-0.46777 0.46778,-0.16038 2.09829,-0.66825 0.4945,-0.16038 0.17374,0.49451 q 0.58806,1.65724 0.73507,3.79563 0.0267,0.4544 0.0267,0.86872 0.0134,1.40331 -0.28066,2.49923 -0.29403,1.09593 -0.88209,1.85773 -0.58805,0.7618 -1.49687,1.16274 -0.90881,0.40095 -2.08492,0.40095 -2.31213,0.0267 -3.60852,-1.53696 -1.20285,1.55032 -3.39469,1.55032 -2.56606,-0.0134 -3.90255,-1.51023 -1.49687,1.51023 -4.08966,1.51023 h -1.13602 q -0.33412,0 -0.60142,-0.17374 -0.57469,-0.36085 -0.57469,-1.34985 v -0.45441 q 0,-1.0291 0.57469,-1.40332 0.2673,-0.16038 0.60142,-0.16038 z"
         style="font-style:normal;font-variant:normal;font-weight:bold;font-stretch:normal;font-size:27.37132454px;font-family:Samim;-inkscape-font-specification:'Samim Bold';fill:#42464a;fill-opacity:1;stroke-width:0.51321232"
         id="path959"
         inkscape:connector-curvature="0" />
      <path
         d="m 125.1414,138.83386 h 1.24294 q 0.0668,0 0.12028,-0.0134 1.04247,-0.0267 1.49687,-0.64152 0.46777,-0.61478 0.42768,-2.03146 l -0.41431,-12.09524 -0.0134,-0.36085 0.33412,-0.14702 2.31213,-0.989 0.73507,-0.32076 v 0.81526 13.08424 q 0,1.44341 0.54796,2.07156 0.5346,0.62815 1.71071,0.62815 h 0.58806 q 0.14701,0 0.29403,0.0401 0.14701,0.0267 0.28066,0.12028 0.33412,0.20048 0.46777,0.56133 0.12028,0.37422 0.12028,0.84199 v 0.45441 q 0,0.97563 -0.56132,1.34985 -0.2673,0.17374 -0.61479,0.17374 h -0.56132 q -2.16512,0 -3.66199,-1.30976 -1.45677,1.30976 -3.63525,1.30976 h -1.21621 q -0.33412,0 -0.60142,-0.17374 -0.57469,-0.36085 -0.57469,-1.34985 v -0.45441 q 0,-1.0291 0.57469,-1.40332 0.2673,-0.16038 0.60142,-0.16038 z"
         style="font-style:normal;font-variant:normal;font-weight:bold;font-stretch:normal;font-size:27.37132454px;font-family:Samim;-inkscape-font-specification:'Samim Bold';fill:#42464a;fill-opacity:1;stroke-width:0.51321232"
         id="path961"
         inkscape:connector-curvature="0" />
      <path
         d="m 119.63507,141.38656 q -2.12502,0.989 -6.24142,0.989 h -9.20841 q -0.33413,0 -0.60143,-0.17374 -0.57469,-0.36085 -0.57469,-1.34985 v -0.45441 q 0,-1.04246 0.58806,-1.40332 0.2673,-0.16038 0.58806,-0.16038 h 2.04483 l -0.42768,-14.86177 -0.0134,-0.37422 0.34749,-0.13365 2.33886,-0.92217 0.73507,-0.29403 v 0.78853 13.80594 q 4.50397,-5.66672 8.72728,-5.66672 1.09592,0 2.0181,0.33413 0.92218,0.32075 1.64389,0.989 1.5236,1.38995 1.5236,3.67535 0.0134,0.46777 -0.0535,0.92218 -0.0668,0.4544 -0.20048,0.88208 -0.13365,0.44104 -0.32076,0.84199 h 2.13839 l 0.61478,0.0134 q 0.32076,0 0.5747,0.16038 0.33412,0.20048 0.4544,0.56133 0.13365,0.36085 0.13365,0.84199 v 0.45441 q 0,0.97563 -0.54796,1.33649 -0.28066,0.1871 -0.64152,0.1871 h -0.74843 q -3.58179,0 -4.89155,-0.989 z m -7.77838,-2.56606 h 1.30976 q 3.48824,0 5.01184,-0.60142 0.88208,-0.34749 1.22957,-0.84199 0.34749,-0.4945 0.28066,-1.21621 -0.0134,-0.14701 -0.0401,-0.26729 -0.0267,-0.13365 -0.0668,-0.22721 -0.0401,-0.10692 -0.0936,-0.20047 -0.0401,-0.0936 -0.10692,-0.17374 -0.17374,-0.21384 -0.38758,-0.34749 -0.20047,-0.14702 -0.48114,-0.21384 -0.28066,-0.0802 -0.64151,-0.0802 -0.74844,-0.0134 -1.53697,0.30739 -0.78853,0.32076 -1.65724,0.98901 -1.18948,0.92217 -2.82,2.87345 z"
         style="font-style:normal;font-variant:normal;font-weight:bold;font-stretch:normal;font-size:27.37132454px;font-family:Samim;-inkscape-font-specification:'Samim Bold';fill:#42464a;fill-opacity:1;stroke-width:0.51321232"
         id="path963"
         inkscape:connector-curvature="0" />
      <path
         d="m 104.35898,138.83386 q 0.10692,0 0.20047,0.0134 0.10692,0.0134 0.20048,0.0535 0.0936,0.0267 0.1871,0.0802 0.58806,0.36085 0.58806,1.41668 v 0.45441 q 0,0.989 -0.56133,1.34985 -0.26729,0.17374 -0.61478,0.17374 h -1.36322 q -0.24057,1.21621 -0.78853,2.31213 -0.5346,1.09593 -1.34986,2.04483 -2.419045,2.80663 -7.350694,2.82 h -0.02673 -0.374217 l -0.120285,-0.36085 -0.70834,-1.85773 -0.240568,-0.68161 0.721705,-0.0401 q 2.926914,-0.17374 4.650987,-1.24294 1.737437,-1.06919 2.365588,-3.0071 -0.307393,0 -0.721705,0 -0.400947,0 -0.922178,0 -2.967009,0 -4.183215,-1.60379 -0.828625,-1.08256 -0.81526,-2.64625 0.01336,-2.2453 1.082558,-4.02284 1.403315,-2.36558 3.902552,-2.37895 0.935543,0 1.724072,0.33412 0.80189,0.32076 1.43005,0.96228 0.62815,0.62815 1.06919,1.53696 0.70834,1.45678 0.84199,4.29013 z m -6.361696,-3.75553 q -0.360853,0.0134 -0.654881,0.2272 -0.294028,0.21384 -0.561326,0.7217 -0.507866,0.94891 -0.507866,1.68398 0,0.21384 0.02673,0.37422 0.04009,0.16038 0.09355,0.2673 0.06682,0.10692 0.160379,0.18711 0.360852,0.32075 1.189476,0.37421 0.801895,0.0668 2.312134,0.0134 -0.0134,-0.72171 -0.09356,-1.28303 -0.08019,-0.57469 -0.213839,-0.989 -0.133649,-0.42768 -0.320758,-0.72171 -0.173743,-0.30739 -0.400947,-0.4945 -0.227203,-0.18711 -0.481136,-0.2673 -0.240569,-0.0935 -0.547961,-0.0935 z"
         style="font-style:normal;font-variant:normal;font-weight:bold;font-stretch:normal;font-size:27.37132454px;font-family:Samim;-inkscape-font-specification:'Samim Bold';fill:#42464a;fill-opacity:1;stroke-width:0.51321232"
         id="path965"
         inkscape:connector-curvature="0" />
      <path
         d="m 90.499572,144.52731 q -2.004736,3.809 -7.885294,3.83573 -3.635254,0 -5.840463,-1.68398 -2.592791,-1.978 -2.579426,-6.0142 0,-2.87346 1.28303,-5.77364 l 0.200474,-0.45441 0.467772,0.17375 1.99137,0.7217 0.521232,0.18711 -0.213839,0.52123 q -1.029097,2.5126 -1.029097,4.39705 0,2.3255 1.256301,3.43478 1.269666,1.10929 3.982741,1.10929 2.913549,-0.0134 4.263405,-1.18948 1.36322,-1.16274 1.36322,-3.59515 0,-0.85536 -0.347488,-1.99138 -0.334122,-1.14938 -1.015732,-2.55269 l -0.187109,-0.37422 0.307393,-0.2673 1.830992,-1.60379 0.521231,-0.4544 0.307393,0.62815 q 0.360852,0.70834 0.641515,1.40331 0.294028,0.69498 0.507867,1.37659 0.294028,0.96227 0.441042,1.89781 0.160378,0.93555 0.173743,1.85773 0,2.53933 -0.962273,4.41041 z m -7.096764,-13.71239 1.189476,1.18948 q 0.160379,0.17374 0.213839,0.37422 0.06682,0.1871 0,0.38758 -0.05346,0.18711 -0.200474,0.34749 l -1.242936,1.24293 q -0.280663,0.2673 -0.588056,0.28066 -0.307393,0 -0.574691,-0.28066 l -1.242936,-1.24293 q -0.253933,-0.25394 -0.240568,-0.56133 0.01336,-0.32076 0.280663,-0.58806 l 1.162747,-1.16274 q 0.280663,-0.2673 0.614785,-0.2673 0.334123,0 0.628151,0.28066 z"
         style="font-style:normal;font-variant:normal;font-weight:bold;font-stretch:normal;font-size:27.37132454px;font-family:Samim;-inkscape-font-specification:'Samim Bold';fill:#42464a;fill-opacity:1;stroke-width:0.51321232"
         id="path967"
         inkscape:connector-curvature="0" />
    </g>
    <g
       aria-label="دانشکده ریاضی شریف"
       style="font-style:normal;font-variant:normal;font-weight:bold;font-stretch:normal;font-size:12.90199375px;line-height:1.25;font-family:Samim;-inkscape-font-specification:'Samim Bold';text-align:center;letter-spacing:0px;word-spacing:0px;text-anchor:middle;fill:#000000;fill-opacity:1;stroke:none;stroke-width:0.32254985"
       id="text866">
      <path
         d="m 70.897977,105.8567 q 0.449386,0.15119 1.058367,0.14699 0.93657,0 1.293559,-0.26459 0.138596,-0.10079 0.138596,-0.20999 0,-0.36959 -0.453586,-0.95757 -0.188994,-0.24359 -0.449386,-0.49139 -0.256192,-0.24779 -0.579582,-0.49558 l -0.125996,-0.0924 0.084,-0.13439 0.398987,-0.60898 0.0966,-0.1512 0.146996,0.1092 q 0.852573,0.63418 1.318758,1.28936 0.558582,0.78117 0.558582,1.52875 0,0.77277 -0.709777,1.19696 -0.625781,0.37799 -1.772344,0.37379 -0.592182,0 -1.112965,-0.18479 l -0.113397,-0.0378 v -0.1218 l 0.0042,-0.73498 v -0.23099 z"
         style="font-style:normal;font-variant:normal;font-weight:bold;font-stretch:normal;font-size:8.60132885px;font-family:Samim;-inkscape-font-specification:'Samim Bold';text-align:center;text-anchor:middle;fill:#6a7076;fill-opacity:1;stroke-width:0.32254985"
         id="path870" />
      <path
         d="m 69.066837,101.10665 0.726577,-0.31499 0.235193,-0.1008 v 0.25619 5.90082 0.16799 h -0.167995 -0.545983 -0.159595 l -0.0084,-0.15959 -0.180595,-5.59003 -0.0042,-0.11339 z"
         style="font-style:normal;font-variant:normal;font-weight:bold;font-stretch:normal;font-size:8.60132885px;font-family:Samim;-inkscape-font-specification:'Samim Bold';text-align:center;text-anchor:middle;fill:#6a7076;fill-opacity:1;stroke-width:0.32254985"
         id="path872" />
      <path
         d="m 67.256698,101.73663 0.373788,0.37379 q 0.0504,0.0546 0.0672,0.11759 0.021,0.0588 0,0.1218 -0.0168,0.0588 -0.063,0.1092 l -0.390588,0.39058 q -0.0882,0.084 -0.184794,0.0882 -0.0966,0 -0.180594,-0.0882 l -0.390588,-0.39058 q -0.0798,-0.0798 -0.0756,-0.1764 0.0042,-0.1008 0.0882,-0.18479 l 0.365389,-0.36539 q 0.0882,-0.084 0.193194,-0.084 0.104997,0 0.197394,0.0882 z m 0.575381,4.90964 q -0.159595,0.1344 -0.394787,0.2184 -0.235193,0.084 -0.533383,0.12179 -0.293991,0.0378 -0.676179,0.0378 h -0.365388 q -0.117597,0 -0.201594,-0.0588 -0.176395,-0.11759 -0.176395,-0.41998 v -0.1428 q 0,-0.32339 0.180595,-0.44099 0.084,-0.0504 0.188994,-0.0504 h 0.390587 q 0.377989,0 0.478785,-0.0168 0.394788,-0.0546 0.482985,-0.26459 0.0756,-0.1806 0.0756,-0.51239 0,-0.20579 -0.0168,-0.41579 -0.0168,-0.21419 -0.0546,-0.42838 -0.0336,-0.2142 -0.0882,-0.43259 l -0.042,-0.16799 0.167995,-0.0378 0.63418,-0.1428 0.146995,-0.0336 0.0504,0.1428 q 0.0756,0.22679 0.125996,0.46618 0.0546,0.2352 0.0798,0.48719 0.0252,0.24779 0.0252,0.51238 0,1.15917 -0.478785,1.57915 z"
         style="font-style:normal;font-variant:normal;font-weight:bold;font-stretch:normal;font-size:8.60132885px;font-family:Samim;-inkscape-font-specification:'Samim Bold';text-align:center;text-anchor:middle;fill:#6a7076;fill-opacity:1;stroke-width:0.32254985"
         id="path874" />
      <path
         d="m 63.019023,102.29101 0.373788,0.37379 q 0.0798,0.0798 0.0798,0.17639 0.0042,0.0924 -0.0798,0.168 l -0.390587,0.39059 q -0.0798,0.0882 -0.180595,0.0882 -0.0966,0 -0.180594,-0.084 l -0.390588,-0.39059 q -0.084,-0.084 -0.0756,-0.1806 0.0084,-0.0966 0.0924,-0.18059 l 0.365388,-0.36539 q 0.0546,-0.0588 0.121796,-0.0798 0.0714,-0.021 0.138596,0.004 0.0672,0.021 0.125996,0.0798 z m -1.348157,0 0.373788,0.37379 q 0.0798,0.0798 0.0798,0.17639 0.0042,0.0924 -0.0798,0.168 l -0.390588,0.39059 q -0.0798,0.0882 -0.180594,0.0882 -0.0966,0 -0.180594,-0.084 l -0.390588,-0.39059 q -0.084,-0.084 -0.0756,-0.1806 0.0084,-0.0966 0.0924,-0.18059 l 0.365389,-0.36539 q 0.0882,-0.0882 0.193194,-0.084 0.104996,0 0.193194,0.0882 z m 0.671978,-1.07097 0.377989,0.37379 q 0.0504,0.0546 0.0672,0.1176 0.0168,0.0588 0,0.1218 -0.0126,0.0588 -0.0672,0.11339 l -0.390588,0.39059 q -0.0798,0.0798 -0.180594,0.0798 -0.0966,0 -0.184795,-0.0798 l -0.390587,-0.39059 q -0.0798,-0.0882 -0.0756,-0.18479 0.0084,-0.0966 0.0924,-0.1806 l 0.365389,-0.36539 q 0.0588,-0.0588 0.125996,-0.0756 0.0672,-0.021 0.134395,0 0.0672,0.021 0.125996,0.0798 z m 2.692116,4.05708 q 0.0252,0.21839 0.104996,0.35699 0.0798,0.13439 0.218393,0.20159 0.138596,0.0672 0.352789,0.0714 l 0.193194,0.004 q 0.0252,0 0.0462,0.004 0.0252,0 0.0462,0.008 0.0252,0.004 0.0462,0.0168 0.0252,0.008 0.0462,0.021 0.100797,0.0672 0.138596,0.1806 0.042,0.1134 0.042,0.26039 v 0.1428 q 0,0.0924 -0.0126,0.16379 -0.0126,0.0714 -0.0546,0.1428 -0.042,0.0714 -0.109197,0.11759 -0.084,0.0546 -0.193194,0.0546 h -0.218393 q -0.793775,0 -1.175963,-0.44518 -0.369588,0.43678 -1.028967,0.43678 -0.772776,0 -1.154964,-0.47878 -0.398987,0.48298 -1.045767,0.48298 -0.823174,-0.004 -1.238961,-0.47038 -0.470385,0.47458 -1.285159,0.47458 h -0.356989 q -0.104997,0 -0.188994,-0.0546 -0.180594,-0.11339 -0.180594,-0.42418 v -0.1428 q 0,-0.32759 0.184794,-0.44099 0.0798,-0.0504 0.184794,-0.0504 h 0.365388 q 0.277192,0 0.449386,-0.0714 0.176395,-0.0714 0.264592,-0.20999 0.0924,-0.1428 0.113396,-0.36959 l 0.0714,-0.78538 0.0168,-0.15119 h 0.151196 0.495584 0.146995 l 0.021,0.14279 0.104997,0.78958 q 0.0462,0.35699 0.209993,0.51238 0.163795,0.1554 0.474585,0.1554 0.167995,0 0.277191,-0.0588 0.113397,-0.0588 0.184794,-0.2016 0.0714,-0.14699 0.0924,-0.39058 l 0.0798,-0.79798 0.0126,-0.15119 h 0.155395 0.495584 0.146995 l 0.0168,0.14699 0.109196,0.80638 q 0.0294,0.23519 0.104997,0.37798 0.0798,0.1428 0.205794,0.2058 0.125996,0.063 0.31499,0.063 0.251992,0 0.382188,-0.1428 0.130196,-0.14699 0.159595,-0.50398 l 0.0798,-0.88618 0.0126,-0.15119 h 0.155395 0.495584 0.146996 l 0.0168,0.14699 z"
         style="font-style:normal;font-variant:normal;font-weight:bold;font-stretch:normal;font-size:8.60132885px;font-family:Samim;-inkscape-font-specification:'Samim Bold';text-align:center;text-anchor:middle;fill:#6a7076;fill-opacity:1;stroke-width:0.32254985"
         id="path876" />
      <path
         d="m 57.664197,100.44307 v 0.77277 0.1008 l -0.0924,0.0504 -2.566119,1.31876 2.587118,2.86851 q 0.163795,0.18059 0.32339,0.26879 0.163795,0.084 0.33179,0.084 l 0.188994,0.004 q 0.100796,0 0.180594,0.0504 0.0714,0.042 0.113396,0.1176 0.0462,0.0756 0.0588,0.1512 0.0126,0.0756 0.0126,0.17219 v 0.1428 q 0,0.30659 -0.172194,0.42418 -0.0882,0.0546 -0.201594,0.0546 l -0.205794,-0.004 q -0.264591,0 -0.533383,-0.11339 -0.268791,-0.1134 -0.524983,-0.31919 -0.256192,-0.2058 -0.512384,-0.50399 -0.356989,0.94077 -1.88994,0.94077 h -0.95337 q -0.104997,0 -0.188994,-0.0546 -0.180595,-0.11339 -0.180595,-0.42418 v -0.1428 q 0,-0.32759 0.184794,-0.44099 0.042,-0.0252 0.0924,-0.0378 0.0462,-0.0126 0.0924,-0.0126 l 1.087765,-0.004 q 0.432587,0 0.64678,-0.1176 0.214193,-0.1218 0.264592,-0.35279 0.0168,-0.0798 0.0042,-0.16379 -0.0126,-0.084 -0.0714,-0.1848 -0.0588,-0.10499 -0.163795,-0.22259 l -1.608549,-1.78074 -0.0378,-0.0462 -0.0042,-0.0588 q -0.0168,-0.36539 0.0546,-0.68878 0.0294,-0.13859 0.117596,-0.24779 0.0882,-0.1092 0.222593,-0.1764 l 3.099503,-1.57495 0.243592,-0.12179 z"
         style="font-style:normal;font-variant:normal;font-weight:bold;font-stretch:normal;font-size:8.60132885px;font-family:Samim;-inkscape-font-specification:'Samim Bold';text-align:center;text-anchor:middle;fill:#6a7076;fill-opacity:1;stroke-width:0.32254985"
         id="path878" />
      <path
         d="m 53.850718,105.9113 q 0.100797,0 0.180594,0.0504 0.180595,0.1176 0.180595,0.44099 v 0.1428 q 0,0.0672 -0.0084,0.12599 -0.0042,0.0546 -0.0252,0.1134 -0.0168,0.0546 -0.0546,0.105 -0.0378,0.0462 -0.0882,0.0798 -0.084,0.0546 -0.193194,0.0546 h -0.130196 q -0.327589,0 -0.60898,-0.12179 -0.281392,-0.126 -0.508184,-0.36539 -0.596382,0.57958 -1.957139,0.57958 -0.650979,0 -1.360757,-0.24779 l -0.109196,-0.0378 v -0.1176 -0.78957 -0.2562 l 0.230992,0.1008 q 0.260392,0.1092 0.558583,0.168 0.29819,0.0546 0.642579,0.0546 0.949171,0 1.247361,-0.29819 0.042,-0.042 0.042,-0.0882 0,-0.0798 -0.0504,-0.1806 l -1.041567,-2.12093 -0.0672,-0.1344 0.125996,-0.084 0.625781,-0.39899 0.163794,-0.105 0.0798,0.1722 1.100365,2.35192 q 0.365389,0.78538 0.902972,0.80218 z"
         style="font-style:normal;font-variant:normal;font-weight:bold;font-stretch:normal;font-size:8.60132885px;font-family:Samim;-inkscape-font-specification:'Samim Bold';text-align:center;text-anchor:middle;fill:#6a7076;fill-opacity:1;stroke-width:0.32254985"
         id="path880" />
      <path
         d="m 46.975529,104.34895 q -0.638379,0.62158 -0.63418,1.15916 0,0.21419 0.146996,0.31919 0.146995,0.1008 0.520783,0.1008 0.386388,0 0.537583,-0.0966 0.151196,-0.0966 0.151196,-0.28559 0.0084,-0.54178 -0.722378,-1.19696 z m 0.0378,2.65851 q -0.734977,0 -1.184362,-0.34859 -0.487185,-0.38638 -0.495585,-1.12976 -0.0084,-0.83578 0.894572,-1.85214 l -0.021,-0.021 -0.117597,-0.1008 0.0882,-0.126 0.424186,-0.58798 0.100797,-0.14279 0.138596,0.10919 q 1.852141,1.46996 1.864741,2.71732 0.0042,0.36539 -0.134396,0.66778 -0.138596,0.29819 -0.419987,0.51238 -0.403187,0.30659 -1.138164,0.30239 z"
         style="font-style:normal;font-variant:normal;font-weight:bold;font-stretch:normal;font-size:8.60132885px;font-family:Samim;-inkscape-font-specification:'Samim Bold';text-align:center;text-anchor:middle;fill:#6a7076;fill-opacity:1;stroke-width:0.32254985"
         id="path882" />
      <path
         d="m 41.805496,108.25902 q -0.810575,1.00377 -2.410724,1.00797 h -0.0126 -0.113396 l -0.042,-0.105 -0.230993,-0.57118 -0.084,-0.21419 0.230993,-0.0168 q 1.104565,-0.0756 1.658948,-0.52918 0.554382,-0.45359 0.61318,-1.29776 0.0336,-0.42419 -0.268791,-1.54555 l -0.0336,-0.126 0.113396,-0.063 0.62998,-0.36539 0.176395,-0.10079 0.0672,0.19319 q 0.348589,0.99537 0.348589,1.84794 -0.0042,1.10037 -0.64258,1.88574 z"
         style="font-style:normal;font-variant:normal;font-weight:bold;font-stretch:normal;font-size:8.60132885px;font-family:Samim;-inkscape-font-specification:'Samim Bold';text-align:center;text-anchor:middle;fill:#6a7076;fill-opacity:1;stroke-width:0.32254985"
         id="path884" />
      <path
         d="m 38.14741,106.64627 q -0.159595,0.1344 -0.394788,0.2184 -0.235192,0.084 -0.533383,0.12179 -0.293991,0.0378 -0.676178,0.0378 h -0.365389 q -0.117596,0 -0.201594,-0.0588 -0.176394,-0.11759 -0.176394,-0.41998 v -0.1428 q 0,-0.32339 0.180594,-0.44099 0.084,-0.0504 0.188994,-0.0504 h 0.390588 q 0.377988,0 0.478785,-0.0168 0.394787,-0.0546 0.482985,-0.26459 0.0756,-0.1806 0.0756,-0.51239 0,-0.20579 -0.0168,-0.41579 -0.0168,-0.21419 -0.0546,-0.42838 -0.0336,-0.2142 -0.0882,-0.43259 l -0.042,-0.16799 0.167994,-0.0378 0.63418,-0.1428 0.146996,-0.0336 0.0504,0.1428 q 0.0756,0.22679 0.125996,0.46618 0.0546,0.2352 0.0798,0.48719 0.0252,0.24779 0.0252,0.51238 0,1.15917 -0.478785,1.57915 z m 0.167995,1.19697 0.369588,0.37378 q 0.0798,0.0798 0.0798,0.1722 0.0042,0.0966 -0.0798,0.17639 l -0.390588,0.39059 q -0.0798,0.084 -0.180594,0.084 -0.0966,0.004 -0.176394,-0.084 l -0.390588,-0.39059 q -0.0546,-0.0504 -0.0714,-0.11339 -0.0168,-0.063 0.0042,-0.126 0.021,-0.063 0.0798,-0.1218 l 0.361189,-0.36538 q 0.0924,-0.084 0.197394,-0.084 0.104997,0 0.197394,0.0882 z m -1.348158,0 0.369589,0.37378 q 0.0798,0.0798 0.0798,0.1722 0.0042,0.0966 -0.0798,0.17639 l -0.390588,0.39059 q -0.0798,0.084 -0.180594,0.084 -0.0966,0.004 -0.176395,-0.084 l -0.390588,-0.39059 q -0.084,-0.0798 -0.0756,-0.18059 0.0042,-0.0966 0.0882,-0.1806 l 0.361189,-0.36538 q 0.0924,-0.084 0.197393,-0.084 0.104997,0 0.197394,0.0882 z"
         style="font-style:normal;font-variant:normal;font-weight:bold;font-stretch:normal;font-size:8.60132885px;font-family:Samim;-inkscape-font-specification:'Samim Bold';text-align:center;text-anchor:middle;fill:#6a7076;fill-opacity:1;stroke-width:0.32254985"
         id="path886" />
      <path
         d="m 36.215472,105.9113 q 0.100797,0 0.184794,0.0462 0.184795,0.11339 0.184795,0.44518 v 0.1428 q 0,0.30659 -0.176395,0.42418 -0.084,0.0546 -0.193194,0.0546 h -0.167994 q -0.949171,0 -1.360758,-0.63418 -0.277191,-0.43258 -0.30659,-1.33976 l -0.121796,-3.77568 -0.0042,-0.11339 0.104997,-0.0462 0.726577,-0.31919 0.235192,-0.105 v 0.26039 4.03608 q 0,0.49558 0.172195,0.70977 0.176394,0.2142 0.550183,0.2142 z"
         style="font-style:normal;font-variant:normal;font-weight:bold;font-stretch:normal;font-size:8.60132885px;font-family:Samim;-inkscape-font-specification:'Samim Bold';text-align:center;text-anchor:middle;fill:#6a7076;fill-opacity:1;stroke-width:0.32254985"
         id="path888" />
      <path
         d="m 26.723771,105.9113 h 0.222593 q 0.104997,0 0.193194,-0.0126 0.0924,-0.0126 0.163795,-0.0336 0.0714,-0.0252 0.125996,-0.0588 0.0588,-0.0378 0.0966,-0.084 0.042,-0.0504 0.0672,-0.11339 0.0252,-0.063 0.0378,-0.1386 0.0168,-0.0756 0.0168,-0.16799 l 0.0252,-0.93237 v -0.1386 l 0.138596,-0.0252 0.64258,-0.1092 0.193193,-0.0336 0.0042,0.1932 0.0294,1.04997 q 0.0042,0.17639 0.0672,0.27299 0.0672,0.0924 0.205794,0.13859 1.545551,-2.21333 3.019705,-2.21333 0.709777,0 1.154963,0.41579 0.470385,0.43259 0.478785,1.15496 0.0042,0.89457 -0.747576,1.43636 -0.705578,0.51238 -2.314127,0.51238 h -0.63838 q -1.117165,0 -1.721946,-0.48718 -0.461985,0.48718 -1.243161,0.48718 h -0.218393 q -0.104997,0 -0.188994,-0.0546 -0.180594,-0.11339 -0.180594,-0.42418 v -0.1428 q 0,-0.32339 0.180594,-0.44099 0.042,-0.0252 0.0924,-0.0378 0.0462,-0.0126 0.0966,-0.0126 z m 3.338895,-0.004 h 0.411587 q 1.096165,0 1.57495,-0.189 0.272992,-0.10499 0.382188,-0.26039 0.113397,-0.15539 0.0924,-0.39059 -0.0042,-0.0798 -0.0294,-0.14699 -0.0252,-0.0672 -0.0672,-0.1218 -0.155395,-0.20159 -0.474585,-0.20159 -0.230992,-0.004 -0.482985,0.0966 -0.247792,0.1008 -0.516583,0.3108 -0.373788,0.28979 -0.890372,0.90297 z m 1.369157,-4.33427 0.373788,0.37379 q 0.0504,0.0546 0.0672,0.1176 0.021,0.0588 0,0.12179 -0.0168,0.0588 -0.063,0.1092 l -0.390588,0.39059 q -0.0882,0.084 -0.184794,0.0882 -0.0966,0 -0.180594,-0.0882 l -0.390588,-0.39059 q -0.0798,-0.0798 -0.0756,-0.17639 0.0042,-0.1008 0.0882,-0.1848 l 0.365388,-0.36539 q 0.0882,-0.084 0.193194,-0.084 0.104997,0 0.197394,0.0882 z"
         style="font-style:normal;font-variant:normal;font-weight:bold;font-stretch:normal;font-size:8.60132885px;font-family:Samim;-inkscape-font-specification:'Samim Bold';text-align:center;text-anchor:middle;fill:#6a7076;fill-opacity:1;stroke-width:0.32254985"
         id="path890" />
      <path
         d="m 26.77417,105.9113 q 0.0252,0 0.0966,0.008 0.0462,0.0126 0.0882,0.0378 0.184794,0.11759 0.184794,0.44518 v 0.1428 q 0,0.13019 -0.0378,0.25199 -0.0378,0.1092 -0.138596,0.17219 -0.084,0.0546 -0.197393,0.0546 l -0.520784,-0.004 -0.890372,0.004 q -0.117596,0 -0.117596,0.0588 0,0.0588 0.134396,0.0672 l 0.369588,0.0168 q 0.772775,0.0378 0.776975,0.72237 0,0.71818 -0.655179,1.18017 -0.814774,0.57118 -2.242729,0.57538 -1.369157,0 -2.091534,-0.60478 -0.764376,-0.64678 -0.768576,-1.73035 -0.0042,-0.92397 0.503984,-2.00333 l 0.0672,-0.147 0.146995,0.063 0.617381,0.25199 0.159595,0.0672 -0.0672,0.15539 q -0.377988,0.85678 -0.394788,1.56655 -0.0168,0.64258 0.524984,1.01217 0.440986,0.29819 1.335558,0.29399 0.810574,-0.004 1.348157,-0.20999 0.239393,-0.0924 0.377988,-0.19319 0.243593,-0.1764 0.084,-0.1806 l -0.285591,-0.008 q -0.503985,-0.0168 -0.789576,-0.26039 -0.281391,-0.23939 -0.285591,-0.67618 0,-0.55438 0.356989,-0.84417 0.361189,-0.28979 1.012168,-0.28979 z"
         style="font-style:normal;font-variant:normal;font-weight:bold;font-stretch:normal;font-size:8.60132885px;font-family:Samim;-inkscape-font-specification:'Samim Bold';text-align:center;text-anchor:middle;fill:#6a7076;fill-opacity:1;stroke-width:0.32254985"
         id="path892" />
      <path
         d="m 15.959511,102.29101 0.373788,0.37379 q 0.0798,0.0798 0.0798,0.17639 0.0042,0.0924 -0.0798,0.168 l -0.390587,0.39059 q -0.0798,0.0882 -0.180595,0.0882 -0.0966,0 -0.180594,-0.084 l -0.390588,-0.39059 q -0.084,-0.084 -0.0756,-0.1806 0.0084,-0.0966 0.0924,-0.18059 l 0.365388,-0.36539 q 0.0546,-0.0588 0.121796,-0.0798 0.0714,-0.021 0.138596,0.004 0.0672,0.021 0.125996,0.0798 z m -1.348157,0 0.373788,0.37379 q 0.0798,0.0798 0.0798,0.17639 0.0042,0.0924 -0.0798,0.168 l -0.390588,0.39059 q -0.0798,0.0882 -0.180594,0.0882 -0.0966,0 -0.180594,-0.084 l -0.390588,-0.39059 q -0.084,-0.084 -0.0756,-0.1806 0.0084,-0.0966 0.0924,-0.18059 l 0.365389,-0.36539 q 0.0882,-0.0882 0.193194,-0.084 0.104996,0 0.193194,0.0882 z m 0.671978,-1.07097 0.377988,0.37379 q 0.0504,0.0546 0.0672,0.1176 0.0168,0.0588 0,0.1218 -0.0126,0.0588 -0.0672,0.11339 l -0.390587,0.39059 q -0.0798,0.0798 -0.180595,0.0798 -0.0966,0 -0.184794,-0.0798 l -0.390587,-0.39059 q -0.0798,-0.0882 -0.0756,-0.18479 0.0084,-0.0966 0.0924,-0.1806 l 0.365389,-0.36539 q 0.0588,-0.0588 0.125996,-0.0756 0.0672,-0.021 0.134395,0 0.0672,0.021 0.125996,0.0798 z m -3.947875,4.69126 h 0.365388 q 0.277192,0 0.449386,-0.0714 0.176395,-0.0714 0.264592,-0.20999 0.0924,-0.1428 0.113396,-0.36959 l 0.0714,-0.78538 0.0168,-0.15119 h 0.151196 0.495584 0.146995 l 0.021,0.14279 0.104996,0.78958 q 0.0462,0.35699 0.209994,0.51238 0.163795,0.1554 0.474585,0.1554 0.167995,0 0.277191,-0.0588 0.113397,-0.0588 0.184794,-0.2016 0.0714,-0.14699 0.0924,-0.39058 l 0.0798,-0.79798 0.0126,-0.15119 h 0.155395 0.495584 0.142795 l 0.021,0.14279 0.109196,0.80638 q 0.0504,0.36539 0.193194,0.52078 0.146996,0.1512 0.407387,0.147 0.155396,0 0.243593,-0.0504 0.0924,-0.0504 0.146995,-0.1554 0.151195,-0.29819 0.0546,-0.91557 -0.0504,-0.33179 -0.163794,-0.82317 l -0.0336,-0.147 0.146995,-0.0504 0.659379,-0.20999 0.155395,-0.0504 0.0546,0.1554 q 0.184794,0.52078 0.230992,1.19276 0.0084,0.14279 0.0084,0.27299 0.0042,0.44099 -0.0882,0.78538 -0.0924,0.34438 -0.277191,0.58378 -0.184795,0.23939 -0.470386,0.36539 -0.285591,0.12599 -0.655179,0.12599 -0.726577,0.008 -1.133964,-0.48298 -0.377988,0.48718 -1.066767,0.48718 -0.806374,-0.004 -1.226361,-0.47458 -0.470385,0.47458 -1.285159,0.47458 h -0.356989 q -0.104997,0 -0.188994,-0.0546 -0.180594,-0.11339 -0.180594,-0.42418 v -0.1428 q 0,-0.32339 0.180594,-0.44099 0.084,-0.0504 0.188994,-0.0504 z"
         style="font-style:normal;font-variant:normal;font-weight:bold;font-stretch:normal;font-size:8.60132885px;font-family:Samim;-inkscape-font-specification:'Samim Bold';text-align:center;text-anchor:middle;fill:#6a7076;fill-opacity:1;stroke-width:0.32254985"
         id="path894" />
      <path
         d="m 9.4749147,104.79833 0.6299803,-0.36539 0.197394,-0.11339 0.0504,0.22259 q 0.113396,0.48718 0.285591,1.17176 0.021,0.0798 0.151195,0.1386 0.130196,0.0588 0.419987,0.0588 h 0.172195 q 0.100796,0 0.180594,0.0504 0.184794,0.1134 0.184794,0.44099 v 0.1428 q 0,0.31079 -0.176394,0.42418 -0.084,0.0546 -0.193194,0.0546 h -0.146996 q -0.373788,0 -0.60898,-0.1008 -0.226793,1.15917 -0.9827694,1.74715 -0.7517763,0.59218 -1.9949371,0.59638 h -0.0126 -0.1133965 l -0.041999,-0.105 -0.2309928,-0.57118 -0.083997,-0.21419 0.2309927,-0.0168 q 1.0835659,-0.0756 1.6379484,-0.52918 0.5543825,-0.45359 0.63418,-1.30196 0.037799,-0.39899 -0.2687915,-1.54135 l -0.033599,-0.126 z"
         style="font-style:normal;font-variant:normal;font-weight:bold;font-stretch:normal;font-size:8.60132885px;font-family:Samim;-inkscape-font-specification:'Samim Bold';text-align:center;text-anchor:middle;fill:#6a7076;fill-opacity:1;stroke-width:0.32254985"
         id="path896" />
      <path
         d="m 6.3964115,106.64627 q -0.159595,0.1344 -0.3947876,0.2184 -0.2351926,0.084 -0.5333832,0.12179 -0.2939907,0.0378 -0.6761787,0.0378 H 4.4266736 q -0.1175963,0 -0.2015937,-0.0588 -0.1763944,-0.11759 -0.1763944,-0.41998 v -0.1428 q 0,-0.32339 0.1805943,-0.44099 0.083997,-0.0504 0.188994,-0.0504 h 0.3905877 q 0.3779881,0 0.4787849,-0.0168 0.3947876,-0.0546 0.4829848,-0.26459 0.075598,-0.1806 0.075598,-0.51239 0,-0.20579 -0.016799,-0.41579 -0.016799,-0.21419 -0.054598,-0.42838 -0.033599,-0.2142 -0.088197,-0.43259 l -0.041999,-0.16799 0.1679947,-0.0378 0.63418,-0.1428 0.1469953,-0.0336 0.050398,0.1428 q 0.075598,0.22679 0.1259961,0.46618 0.054598,0.2352 0.079797,0.48719 0.025199,0.24779 0.025199,0.51238 0,1.15917 -0.4787849,1.57915 z m 0.1679947,1.19697 0.3695883,0.37378 q 0.079797,0.0798 0.079797,0.1722 0.0042,0.0966 -0.079797,0.17639 l -0.3905877,0.39059 q -0.079797,0.084 -0.1805943,0.084 -0.096597,0.004 -0.1763944,-0.084 l -0.3905877,-0.39059 q -0.054598,-0.0504 -0.071398,-0.11339 -0.016799,-0.063 0.0042,-0.126 0.020999,-0.063 0.079798,-0.1218 l 0.3611886,-0.36538 q 0.092397,-0.084 0.1973938,-0.084 0.1049967,0 0.1973938,0.0882 z m -1.3481575,0 0.3695883,0.37378 q 0.079798,0.0798 0.079798,0.1722 0.0042,0.0966 -0.079798,0.17639 l -0.3905877,0.39059 q -0.079798,0.084 -0.1805943,0.084 -0.096597,0.004 -0.1763944,-0.084 l -0.3905877,-0.39059 q -0.083997,-0.0798 -0.075598,-0.18059 0.0042,-0.0966 0.088197,-0.1806 l 0.3611886,-0.36538 q 0.092397,-0.084 0.1973938,-0.084 0.1049967,0 0.1973938,0.0882 z"
         style="font-style:normal;font-variant:normal;font-weight:bold;font-stretch:normal;font-size:8.60132885px;font-family:Samim;-inkscape-font-specification:'Samim Bold';text-align:center;text-anchor:middle;fill:#6a7076;fill-opacity:1;stroke-width:0.32254985"
         id="path898" />
      <path
         d="m -0.06718478,105.9071 q 0.44518597,0.004 0.83577365,-0.021 0.0713978,-0.004 0.19739378,-0.0168 0.12599605,-0.0126 0.29819065,-0.0336 -0.2141933,-0.21839 -0.33598946,-0.49559 -0.12599603,-0.29399 -0.12599603,-0.60898 0,-0.22259 0.062998,-0.46198 0.0335989,-0.126 0.0881972,-0.24779 0.0587981,-0.1218 0.13439575,-0.231 0.079797,-0.11339 0.1805943,-0.21839 0.4955844,-0.52918 1.1801628,-0.52918 0.730777,0 1.2137618,0.53758 0.1343957,0.147 0.2225929,0.32339 0.092397,0.17639 0.1385957,0.38219 0.020999,0.10079 0.033599,0.20579 0.0126,0.1008 0.0126,0.20159 0,0.3024 -0.1091965,0.57119 -0.1385957,0.34859 -0.4409861,0.62158 0.2183931,0.0252 0.5585823,0.0252 h 0.5963812 q 0.029399,0 0.058798,0.004 0.033599,0.004 0.062998,0.0168 0.033599,0.008 0.058798,0.0294 0.1049966,0.063 0.1427954,0.1764 0.041999,0.1134 0.041999,0.26459 v 0.1428 q 0,0.31079 -0.1763944,0.42418 -0.041999,0.0294 -0.092397,0.042 -0.050398,0.0126 -0.1007968,0.0126 H 4.094884 q -1.0205678,0 -1.679947,-0.44938 -0.1889941,0.0924 -0.4073872,0.16799 -0.2183931,0.0714 -0.4577856,0.126 -0.2393924,0.0504 -0.5081839,0.0882 -0.26459169,0.0336 -0.55858242,0.0504 -0.28979087,0.0168 -0.60898081,0.0168 -1.46155397,0 -2.20073057,-0.31079 -0.6131807,-0.25199 -0.9575699,-0.70978 -0.3443891,-0.45778 -0.3989874,-1.09616 -0.025199,-0.29399 0.0084,-0.60898 0.033599,-0.31499 0.1301958,-0.64678 l 0.041999,-0.1596 0.159595,0.042 0.6005811,0.1596 0.1427955,0.0378 -0.020999,0.15119 q -0.029399,0.18899 -0.050398,0.35279 -0.016799,0.15959 -0.025199,0.28139 -0.0042,0.1218 0,0.20159 0.020999,0.47879 0.3275897,0.76018 0.3065903,0.27719 0.9533699,0.36959 0.2057935,0.0294 0.54598281,0.0462 0.34018927,0.0126 0.80217471,0.0126 z m 1.88994038,-1.16757 q 0,0.1302 0.041999,0.2352 0.046199,0.10499 0.1385956,0.19739 0.083997,0.084 0.159595,0.1512 0.079798,0.0672 0.1343958,0.10079 0.054598,0.0336 0.088197,0.0504 0.033599,0.0168 0.046199,0.0168 0.016799,0 0.050399,-0.0168 0.037799,-0.0168 0.088197,-0.0504 0.054598,-0.0336 0.1343957,-0.10079 0.079797,-0.0672 0.1637949,-0.1512 0.1805943,-0.18059 0.1805943,-0.44519 0,-0.26039 -0.1805943,-0.44098 -0.222593,-0.2226 -0.4325864,-0.2226 -0.2141932,0 -0.4325864,0.2226 -0.1805943,0.18059 -0.1805943,0.45358 z m 0.7685758,-3.50269 0.3737882,0.37379 q 0.050398,0.0546 0.067198,0.1176 0.020999,0.0588 0,0.12179 -0.016799,0.0588 -0.062998,0.1092 l -0.3905877,0.39059 q -0.088197,0.084 -0.1847942,0.0882 -0.096597,0 -0.1805943,-0.0882 l -0.3905877,-0.39059 q -0.079797,-0.0798 -0.075598,-0.17639 0.0042,-0.1008 0.088197,-0.1848 l 0.3653885,-0.36539 q 0.088197,-0.084 0.1931939,-0.084 0.1049967,0 0.1973938,0.0882 z"
         style="font-style:normal;font-variant:normal;font-weight:bold;font-stretch:normal;font-size:8.60132885px;font-family:Samim;-inkscape-font-specification:'Samim Bold';text-align:center;text-anchor:middle;fill:#6a7076;fill-opacity:1;stroke-width:0.32254985"
         id="path900" />
    </g>
  </g>
</svg>
