<?xml version="1.0" encoding="UTF-8" standalone="no"?>
<!-- Created with Inkscape (http://www.inkscape.org/) -->

<svg
   xmlns:dc="http://purl.org/dc/elements/1.1/"
   xmlns:cc="http://creativecommons.org/ns#"
   xmlns:rdf="http://www.w3.org/1999/02/22-rdf-syntax-ns#"
   xmlns:svg="http://www.w3.org/2000/svg"
   xmlns="http://www.w3.org/2000/svg"
   xmlns:sodipodi="http://sodipodi.sourceforge.net/DTD/sodipodi-0.dtd"
   xmlns:inkscape="http://www.inkscape.org/namespaces/inkscape"
   width="93.976257mm"
   height="112.35635mm"
   viewBox="0 0 93.976257 112.35635"
   version="1.1"
   id="svg2108"
   sodipodi:docname="uniform1-b.svg"
   inkscape:version="0.92.2 (5c3e80d, 2017-08-06)">
  <defs
     id="defs2102" />
  <sodipodi:namedview
     id="base"
     pagecolor="#ffffff"
     bordercolor="#666666"
     borderopacity="1.0"
     inkscape:pageopacity="0.0"
     inkscape:pageshadow="2"
     inkscape:zoom="1.979899"
     inkscape:cx="79.68091"
     inkscape:cy="192.84264"
     inkscape:document-units="mm"
     inkscape:current-layer="g975"
     showgrid="false"
     inkscape:window-width="1853"
     inkscape:window-height="1025"
     inkscape:window-x="67"
     inkscape:window-y="27"
     inkscape:window-maximized="1" />
  <metadata
     id="metadata2105">
    <rdf:RDF>
      <cc:Work
         rdf:about="">
        <dc:format>image/svg+xml</dc:format>
        <dc:type
           rdf:resource="http://purl.org/dc/dcmitype/StillImage" />
        <dc:title></dc:title>
      </cc:Work>
    </rdf:RDF>
  </metadata>
  <g
     inkscape:label="Layer 1"
     inkscape:groupmode="layer"
     id="layer1"
     transform="translate(58.493589,-205.16464)">
    <g
       transform="matrix(0.35277777,0,0,-0.35277777,-75.874942,440.46118)"
       id="g2050">
      <g
         id="g975">
        <g
           transform="translate(224.43409,460.19154)"
           id="g290">
          <path
             inkscape:connector-curvature="0"
             id="path292"
             style="fill:#f2b899;fill-opacity:1;fill-rule:nonzero;stroke:none"
             d="m 0,0 c 0,0 12.528,-34.055 18.527,-41.29 6,-7.234 17.293,-11.646 26.645,-6.352 9.352,5.294 9.881,7.058 9.881,7.058 l -0.529,22.586 c 0,0 -8.823,-5.117 -15.881,0.176 -7.058,5.294 -4.588,9.176 -4.588,9.176 z" />
        </g>
        <g
           style="fill:#011627;fill-opacity:1"
           transform="translate(232.31558,485.60064)"
           id="g294">
          <path
             inkscape:connector-curvature="0"
             id="path296"
             style="fill:#011627;fill-opacity:1;fill-rule:nonzero;stroke:none"
             d="m 0,0 c 0,0 14.865,0.931 22.821,-9.176 8.705,-11.057 3.764,-27.055 3.764,-27.055 L 2.588,-52.7 c 0,0 -11.058,5.646 -19.292,19.057 -8.235,13.41 -10.117,30.349 -10.117,30.349 z" />
        </g>
        <g
           style="fill:#011627;fill-opacity:1"
           transform="translate(271.28759,443.35704)"
           id="g298">
          <path
             inkscape:connector-curvature="0"
             id="path300"
             style="fill:#011627;fill-opacity:1;fill-rule:nonzero;stroke:none"
             d="m 0,0 3.097,-32.14 c 0,0 7.816,6.424 14.102,10.861 5.999,4.235 9.704,5.646 9.704,5.646 L 23.889,8.456 C 23.889,8.456 13.974,4.3 7.96,2.407 1.945,0.514 0,0 0,0" />
        </g>
        <path
           inkscape:connector-curvature="0"
           id="path302"
           style="fill:#a97c3f;fill-opacity:1;fill-rule:nonzero;stroke:none;stroke-width:0.99999994"
           d="m 301.01439,349.79104 h -6.58801 v 272.442 h 6.58801 z" />
        <g
           transform="translate(298.36938,618.09634)"
           id="g304">
          <path
             inkscape:connector-curvature="0"
             id="path306"
             style="fill:#eec600;fill-opacity:1;fill-rule:nonzero;stroke:none"
             d="M 0,0 17.29,-15.039 -0.18,48.886 -17.65,-15.039 -0.36,0 l 0.005,-0.039 0.175,0.019 0.175,-0.019 z" />
        </g>
        <g
           style="fill:#011627;fill-opacity:1"
           transform="translate(296.46629,453.27504)"
           id="g308">
          <path
             inkscape:connector-curvature="0"
             id="path310"
             style="fill:#011627;fill-opacity:1;fill-rule:nonzero;stroke:none"
             d="m 0,0 -0.279,-24.022 8.817,-0.676 c 3.551,-0.272 6.558,2.561 6.522,6.144 l -0.128,12.631 c -0.029,2.879 -2.288,5.246 -5.145,5.392 z" />
        </g>
        <g
           transform="translate(241.57099,357.73184)"
           id="g312">
          <path
             inkscape:connector-curvature="0"
             id="path314"
             style="fill:#a15f0e;fill-opacity:1;fill-rule:nonzero;stroke:none"
             d="m 0,0 c -5.646,2.117 -11.469,-0.941 -15.351,1.059 -2.806,1.445 1.058,13.763 1.588,22.938 0.529,9.176 -1.588,19.41 -1.588,19.41 l -49.296,-1.346 -49.295,1.346 c 0,0 -2.118,-10.234 -1.588,-19.41 0.529,-9.175 4.394,-21.493 1.588,-22.938 -3.882,-2 -9.705,1.058 -15.352,-1.059 -5.646,-2.117 -4.764,-7.94 -4.764,-7.94 h 41.114 c 0,0 -1.824,16.057 3.882,25.232 3.253,5.232 14.235,6.476 21.305,6.719 l -10e-4,-0.014 c 0,0 1.073,0.058 2.801,0.066 0.106,0 0.208,0 0.31,0 0.102,0 0.204,0 0.31,0 1.728,-0.008 2.801,-0.066 2.801,-0.066 v 0.014 c 7.07,-0.243 18.052,-1.487 21.305,-6.719 5.705,-9.175 3.882,-25.232 3.882,-25.232 H 4.764 c 0,0 0.882,5.823 -4.764,7.94" />
        </g>
        <g
           transform="translate(127.63978,370.08344)"
           id="g316">
          <path
             inkscape:connector-curvature="0"
             id="path318"
             style="fill:#eec600;fill-opacity:1;fill-rule:nonzero;stroke:none"
             d="M 0,0 H 22.64 C 21.901,-2.285 21.431,-4.709 21.139,-7.058 H 0.959 C 0.84,-5.106 0.448,-2.653 0,0" />
        </g>
        <g
           style="fill:#011627;fill-opacity:1"
           transform="translate(112.27749,357.73184)"
           id="g320">
          <path
             inkscape:connector-curvature="0"
             id="path322"
             style="fill:#011627;fill-opacity:1;fill-rule:nonzero;stroke:none"
             d="m 0,0 c 5.646,2.117 11.469,-0.941 15.351,1.059 0.892,0.459 1.106,2.026 0.971,4.235 h 20.18 C 35.639,-1.657 36.349,-7.94 36.349,-7.94 H -4.764 c 0,0 -0.882,5.823 4.764,7.94" />
        </g>
        <g
           transform="translate(226.20869,370.08344)"
           id="g324">
          <path
             inkscape:connector-curvature="0"
             id="path326"
             style="fill:#eec600;fill-opacity:1;fill-rule:nonzero;stroke:none"
             d="m 0,0 h -22.64 c 0.739,-2.285 1.209,-4.709 1.501,-7.058 h 20.18 C -0.84,-5.106 -0.448,-2.653 0,0" />
        </g>
        <g
           style="fill:#011627;fill-opacity:1"
           transform="translate(241.57099,357.73184)"
           id="g328">
          <path
             inkscape:connector-curvature="0"
             id="path330"
             style="fill:#011627;fill-opacity:1;fill-rule:nonzero;stroke:none"
             d="m 0,0 c -5.646,2.117 -11.469,-0.941 -15.351,1.059 -0.892,0.459 -1.106,2.026 -0.971,4.235 h -20.18 c 0.863,-6.951 0.153,-13.234 0.153,-13.234 H 4.764 c 0,0 0.882,5.823 -4.764,7.94" />
        </g>
        <g
           transform="translate(166.31098,478.25974)"
           id="g332">
          <path
             inkscape:connector-curvature="0"
             id="path334"
             style="fill:#f2b899;fill-opacity:1;fill-rule:nonzero;stroke:none"
             d="m 0,0 c 1.008,-2.756 2.126,-5.456 3.423,-8.067 1.792,-3.607 4.021,-10.502 7.541,-12.789 4.746,-3.083 8.586,2.948 12.104,6.306 4.673,4.46 8.32,9.703 11.966,14.988 C 23.356,-0.471 11.678,-0.138 0,0" />
        </g>
        <g
           transform="translate(119.87809,434.31204)"
           id="g336">
          <path
             inkscape:connector-curvature="0"
             id="path338"
             style="fill:#a97c3f;fill-opacity:1;fill-rule:nonzero;stroke:none"
             d="m 0,0 c 0,0 -1.647,-18.586 -1.647,-26.35 0,-7.764 0.706,-15.528 0.706,-15.528 l 117.399,-0.471 c 0,0 -0.046,18.28 -0.235,27.762 C 115.731,10.116 103.38,59.17 103.38,59.17 Z" />
        </g>
        <g
           transform="translate(202.50089,628.42134)"
           id="g344"
           style="fill:#011627;fill-opacity:1">
          <path
             inkscape:connector-curvature="0"
             id="path346"
             style="fill:#011627;fill-opacity:1;fill-rule:nonzero;stroke:none"
             d="m 0,0 c -3.812,6.112 -16.449,5.371 -24.769,5.371 -8.321,0 -20.958,0.741 -24.77,-5.371 -1.289,-2.066 -1.204,-4.35 -1.076,-6.799 6.333,-0.246 12.72,-0.306 19.071,-0.024 1.433,0.064 3.064,0.158 4.658,0.119 0.014,-0.202 0.023,-0.421 0.042,-0.604 0.639,0.215 1.34,0.36 2.074,0.455 0.735,-0.095 1.436,-0.24 2.075,-0.455 0.019,0.183 0.028,0.402 0.042,0.604 1.594,0.039 3.225,-0.055 4.658,-0.119 6.351,-0.282 12.738,-0.222 19.071,0.024 C 1.204,-4.35 1.289,-2.066 0,0" />
        </g>
        <g
           transform="translate(223.12129,503.72184)"
           id="g348">
          <path
             inkscape:connector-curvature="0"
             id="path350"
             style="fill:#575351;fill-opacity:1;fill-rule:nonzero;stroke:none"
             d="m 0,0 c 13.269,16.885 22.083,38.043 21.9,59.281 -0.245,28.587 -46.534,20.284 -62.112,11.765 -17.143,-1.205 -39.013,4.79 -55.642,0.941 -4.288,-0.992 -12.338,-4.622 -15.88,-7.411 -6.043,-4.759 2.624,-22.651 8.098,-26.363 6.233,-4.227 14.672,-4.805 21.372,-7.977 8.919,-4.224 11.718,-13.208 15.009,-21.777 4.199,-10.931 6.406,-22.884 10.445,-33.921 11.678,-0.138 23.356,-0.471 35.034,0.438 0.643,0.932 1.286,1.866 1.935,2.797 C -14.38,-14.389 -6.124,-7.793 0,0" />
        </g>
        <g
           transform="translate(235.60939,610.52874)"
           id="g352">
          <path
             inkscape:connector-curvature="0"
             id="path354"
             style="fill:#eec600;fill-opacity:1;fill-rule:nonzero;stroke:none"
             d="M 0,0 C -17.882,15.275 -46.66,16.389 -57.878,16.192 -69.096,16.389 -97.874,15.275 -115.756,0 c -22.586,-19.292 -22.586,-56.446 -22.586,-80.462 0,-26.35 0.941,-39.996 0.941,-39.996 0,0 16.94,-7.999 41.878,-11.763 21.529,-3.25 31.056,-0.471 31.056,-0.471 0,0 1.882,43.29 -1.882,56.935 -3.764,13.646 -16.469,16.94 -31.997,16.469 -15.528,-0.47 -25.409,1.412 -23.056,11.293 2.352,9.881 27.761,7.529 44.701,7.058 12.137,-0.337 17.026,-0.191 18.823,-0.081 1.797,-0.11 6.687,-0.256 18.823,0.081 16.94,0.471 42.349,2.823 44.701,-7.058 2.353,-9.881 -7.528,-11.763 -23.056,-11.293 -15.528,0.471 -28.232,-2.823 -31.997,-16.469 -3.764,-13.645 -1.882,-56.935 -1.882,-56.935 0,0 9.527,-2.779 31.056,0.471 24.938,3.764 41.878,11.763 41.878,11.763 0,0 0.941,13.646 0.941,39.996 0,24.016 0,61.17 -22.586,80.462" />
        </g>
        <g
           transform="translate(140.49148,611.63134)"
           id="g356">
          <path
             inkscape:connector-curvature="0"
             id="path358"
             style="fill:#f5dd66;fill-opacity:1;fill-rule:nonzero;stroke:none"
             d="m 0,0 c 1.218,-2.006 -2.293,-6.364 -7.842,-9.734 -5.549,-3.37 -11.035,-4.476 -12.253,-2.47 -1.218,2.005 2.293,6.363 7.842,9.733 C -6.704,0.9 -1.218,2.006 0,0" />
        </g>
        <g
           transform="translate(194.30119,412.66454)"
           id="g360">
          <path
             inkscape:connector-curvature="0"
             id="path362"
             style="fill:#e5b400;fill-opacity:1;fill-rule:nonzero;stroke:none"
             d="m 0,0 c -6.627,-41.324 -44.24,-69.654 -84.012,-63.276 -39.772,6.377 -66.642,45.047 -60.015,86.371 6.627,41.325 44.24,69.654 84.012,63.277 C -20.243,79.994 6.627,41.324 0,0" />
        </g>
        <g
           style="fill:#011627;fill-opacity:1"
           transform="translate(157.50769,418.56454)"
           id="g364">
          <path
             inkscape:connector-curvature="0"
             id="path366"
             style="fill:#011627;fill-opacity:1;fill-rule:nonzero;stroke:none"
             d="m 0,0 c -3.241,-20.211 -21.637,-34.066 -41.088,-30.947 -19.452,3.119 -32.593,22.032 -29.352,42.242 3.241,20.211 21.637,34.066 41.088,30.947 C -9.9,39.123 3.241,20.211 0,0" />
        </g>
        <g
           transform="translate(92.972284,482.47014)"
           id="g368">
          <path
             inkscape:connector-curvature="0"
             id="path370"
             style="fill:#eec600;fill-opacity:1;fill-rule:nonzero;stroke:none"
             d="m 0,0 c 1.359,-1.913 -1.829,-6.512 -7.121,-10.273 -5.292,-3.761 -10.684,-5.259 -12.043,-3.346 -1.36,1.913 1.828,6.512 7.12,10.273 C -6.751,0.415 -1.359,1.913 0,0" />
        </g>
      </g>
    </g>
  </g>
</svg>
