<?xml version="1.0" encoding="UTF-8" standalone="no"?>
<svg
   xmlns:dc="http://purl.org/dc/elements/1.1/"
   xmlns:cc="http://creativecommons.org/ns#"
   xmlns:rdf="http://www.w3.org/1999/02/22-rdf-syntax-ns#"
   xmlns:svg="http://www.w3.org/2000/svg"
   xmlns="http://www.w3.org/2000/svg"
   xmlns:sodipodi="http://sodipodi.sourceforge.net/DTD/sodipodi-0.dtd"
   xmlns:inkscape="http://www.inkscape.org/namespaces/inkscape"
   id="svg1804"
   version="1.1"
   viewBox="0 0 98.840332 116.34495"
   height="116.34495mm"
   width="98.840332mm"
   sodipodi:docname="uniform1-a.svg"
   inkscape:version="0.92.2 (5c3e80d, 2017-08-06)">
  <sodipodi:namedview
     pagecolor="#ffffff"
     bordercolor="#666666"
     borderopacity="1"
     objecttolerance="10"
     gridtolerance="10"
     guidetolerance="10"
     inkscape:pageopacity="0"
     inkscape:pageshadow="2"
     inkscape:window-width="1853"
     inkscape:window-height="1025"
     id="namedview96"
     showgrid="false"
     inkscape:zoom="1.0733885"
     inkscape:cx="-193.11015"
     inkscape:cy="281.09719"
     inkscape:window-x="67"
     inkscape:window-y="27"
     inkscape:window-maximized="1"
     inkscape:current-layer="g1698" />
  <defs
     id="defs1798">
    <clipPath
       id="clipPath788"
       clipPathUnits="userSpaceOnUse">
      <path
         id="path786"
         d="m 660.094,484.376 h 63.27 V 347.511 h -63.27 z" />
    </clipPath>
  </defs>
  <metadata
     id="metadata1801">
    <rdf:RDF>
      <cc:Work
         rdf:about="">
        <dc:format>image/svg+xml</dc:format>
        <dc:type
           rdf:resource="http://purl.org/dc/dcmitype/StillImage" />
        <dc:title></dc:title>
      </cc:Work>
    </rdf:RDF>
  </metadata>
  <g
     transform="translate(-68.508406,-243.36324)"
     id="layer1">
    <g
       id="g1698"
       transform="matrix(0.35277777,0,0,-0.35277777,-87.837974,482.16529)">
      <g
         id="g620"
         transform="translate(595.2141,618.4179)"
         style="fill:#011627;fill-opacity:1">
        <path
           d="m 0,0 h 23.5 l 3,58.501 H -3 Z"
           style="fill:#011627;fill-opacity:1;fill-rule:nonzero;stroke:none"
           id="path622" />
      </g>
      <g
         id="g624"
         transform="translate(613.0219,637.037)"
         style="fill:#becddc;fill-opacity:1">
        <path
           d="M 0,0 C 0.819,7.956 1.61,31.915 2.315,39.882 H 3.168 C 2.729,31.587 2.177,7.3 1.413,-0.973 0.892,-6.608 0.664,-12.684 -0.009,-18.619 h -2.069 c 0.144,1.023 0.283,2.043 0.4,3.055 C -1.08,-10.38 -0.534,-5.19 0,0"
           style="fill:#becddc;fill-opacity:1;fill-rule:nonzero;stroke:none"
           id="path626" />
      </g>
      <g
         id="g628"
         transform="translate(606.2637,638.6242)"
         style="fill:#becddc;fill-opacity:1">
        <path
           d="M 0,0 C 0.053,7.417 0.061,30.87 0.383,38.295 H 1.581 C 1.566,31.186 1.374,8.07 1.353,0.967 1.333,-5.966 1.849,-13.162 1.674,-20.206 H -0.157 C -0.46,-13.48 -0.047,-6.581 0,0"
           style="fill:#becddc;fill-opacity:1;fill-rule:nonzero;stroke:none"
           id="path630" />
      </g>
      <g
         id="g632"
         transform="translate(597.8846,676.919)"
         style="fill:#becddc;fill-opacity:1">
        <path
           d="m 0,0 h 0.96 c 0.777,-6.758 1.465,-29.525 2.025,-36.306 0.604,-7.311 1.5,-14.822 1.377,-22.195 H 3.358 C 2.389,-51.5 2.238,-44.319 1.689,-37.294 1.135,-30.195 0.57,-7.097 0,0"
           style="fill:#becddc;fill-opacity:1;fill-rule:nonzero;stroke:none"
           id="path634" />
      </g>
      <g
         id="g636"
         transform="translate(556.3187,461.9235)">
        <path
           d="m 0,0 c 0,0 -13.168,-35.794 -19.473,-43.398 -6.306,-7.604 -18.176,-12.24 -28.005,-6.677 -9.83,5.564 -10.386,7.419 -10.386,7.419 l 0.556,23.739 c 0,0 9.273,-5.378 16.692,0.185 7.418,5.564 4.822,9.644 4.822,9.644 z"
           style="fill:#95908d;fill-opacity:1;fill-rule:nonzero;stroke:none"
           id="path638" />
      </g>
      <g
         id="g640"
         transform="translate(516.9917,444.2286)">
        <path
           d="m 0,0 c 0.302,0.261 0.567,0.516 0.827,0.769 4.851,-2.884 9.274,-7.159 13.093,-11.181 2.998,-3.156 6.505,-6.831 8.828,-10.794 -0.431,-0.776 -0.847,-1.489 -1.249,-2.136 -3.424,3.769 -6.187,8.275 -9.65,12.039 C 8.128,-7.257 3.88,-3.839 0,0"
           style="fill:#b4b1af;fill-opacity:1;fill-rule:nonzero;stroke:none"
           id="path642" />
      </g>
      <g
         id="g644"
         transform="translate(510.1569,440.8547)">
        <path
           d="m 0,0 c 0.362,0.058 0.725,0.13 1.089,0.221 2.427,-5.986 4.353,-12.154 5.877,-18.441 1.001,-4.126 2.231,-8.64 2.946,-13.14 -0.927,-0.083 -1.86,-0.094 -2.794,-0.05 -0.68,4.246 -1.167,8.569 -2.102,12.653 C 3.568,-12.44 1.774,-6.227 0,0"
           style="fill:#b4b1af;fill-opacity:1;fill-rule:nonzero;stroke:none"
           id="path646" />
      </g>
      <g
         id="g648"
         transform="translate(538.3068,355.4685)">
        <path
           d="m 0,0 c 5.935,2.226 12.055,-0.989 16.135,1.113 2.949,1.519 -1.113,14.466 -1.669,24.11 -0.556,9.644 1.669,20.401 1.669,20.401 l 51.813,-1.415 51.812,1.415 c 0,0 2.226,-10.757 1.669,-20.401 -0.556,-9.644 -4.618,-22.591 -1.669,-24.11 4.08,-2.102 10.2,1.113 16.135,-1.113 5.935,-2.226 5.008,-8.346 5.008,-8.346 H 97.69 c 0,0 1.917,16.877 -4.08,26.521 -3.419,5.499 -14.962,6.806 -22.393,7.062 v -0.014 c 0,0 -1.128,0.06 -2.943,0.068 -0.112,0 -0.219,0 -0.326,0 -0.108,0 -0.215,0 -0.327,0 -1.815,-0.008 -2.943,-0.068 -2.943,-0.068 v 0.014 C 57.247,24.981 45.704,23.674 42.285,18.175 36.289,8.531 38.205,-8.346 38.205,-8.346 H -5.007 c 0,0 -0.928,6.12 5.007,8.346"
           style="fill:#877d70;fill-opacity:1;fill-rule:nonzero;stroke:none"
           id="path650" />
      </g>
      <g
         id="g652"
         transform="translate(658.0553,368.4508)">
        <path
           d="m 0,0 h -23.797 c 0.778,-2.402 1.272,-4.95 1.578,-7.418 H -1.008 C -0.883,-5.366 -0.471,-2.789 0,0"
           style="fill:#b4b1af;fill-opacity:1;fill-rule:nonzero;stroke:none"
           id="path654" />
      </g>
      <g
         id="g656"
         transform="translate(674.202,355.4685)">
        <path
           d="m 0,0 c -5.935,2.226 -12.055,-0.989 -16.135,1.113 -0.938,0.483 -1.162,2.13 -1.02,4.451 h -21.21 c 0.907,-7.306 0.16,-13.91 0.16,-13.91 H 5.007 c 0,0 0.928,6.12 -5.007,8.346"
           style="fill:#a15f0e;fill-opacity:1;fill-rule:nonzero;stroke:none"
           id="path658" />
      </g>
      <g
         id="g660"
         transform="translate(554.4534,368.4508)">
        <path
           d="M 0,0 H 23.797 C 23.019,-2.402 22.525,-4.95 22.219,-7.418 H 1.008 C 0.883,-5.366 0.471,-2.789 0,0"
           style="fill:#b4b1af;fill-opacity:1;fill-rule:nonzero;stroke:none"
           id="path662" />
      </g>
      <g
         id="g664"
         transform="translate(538.3068,355.4685)">
        <path
           d="m 0,0 c 5.935,2.226 12.055,-0.989 16.135,1.113 0.938,0.483 1.162,2.13 1.02,4.451 h 21.21 c -0.907,-7.306 -0.16,-13.91 -0.16,-13.91 H -5.007 c 0,0 -0.928,6.12 5.007,8.346"
           style="fill:#a15f0e;fill-opacity:1;fill-rule:nonzero;stroke:none"
           id="path666" />
      </g>
      <g
         id="g668"
         transform="translate(656.5916,490.3609)">
        <path
           d="m 0,0 c 0,0 12.859,-61.326 11.353,-82.098 -0.59,-8.139 -0.742,-16.32 -0.742,-16.32 l -123.394,-0.495 c 0,0 -0.989,19.288 0.247,29.179 1.237,9.892 15.849,68.003 15.849,68.003 z"
           style="fill:#e5b400;fill-opacity:1;fill-rule:nonzero;stroke:none"
           id="path670" />
      </g>
      <g
         id="g672"
         transform="translate(642.5907,490.3609)"
         style="fill:#011627;fill-opacity:1">
        <path
           d="m 0,0 0.61,-117.987 h -75.391 l 1.095,115.912 z"
           style="fill:#011627;fill-opacity:1;fill-rule:nonzero;stroke:none"
           id="path674" />
      </g>
      <path
         d="m 543.336,423.347 h 125.867 v 6.182 H 543.336 Z"
         style="fill:#706d6b;fill-opacity:1;fill-rule:nonzero;stroke:none"
         id="path676" />
      <g
         id="g678"
         transform="translate(677.6503,479.2332)">
        <path
           d="m 0,0 c 0,0 11.87,-4.266 13.353,-9.273 1.484,-5.008 5.935,-34.125 6.491,-48.962 0.557,-14.837 -1.298,-29.859 -1.298,-29.859 0,0 3.895,-14.837 -0.556,-15.95 -4.451,-1.113 -18.268,-3.895 -20.123,-1.113 -1.854,2.782 1.206,14.652 0.093,24.296 -1.113,9.644 -3.709,28.19 -5.749,38.576 -2.04,10.386 -4.637,20.401 -4.637,20.401 z"
           style="fill:#95908d;fill-opacity:1;fill-rule:nonzero;stroke:none"
           id="path680" />
      </g>
      <g
         id="g682"
         transform="translate(669.4831,438.8358)">
        <path
           d="m 0,0 c 8.667,0.627 17.742,0.316 26.471,-0.176 0.061,-0.521 0.121,-1.041 0.18,-1.559 C 17.994,-2.225 8.997,-2.538 0.388,-1.944 0.385,-1.926 0.381,-1.906 0.378,-1.888 0.254,-1.256 0.127,-0.626 0,0"
           style="fill:#b4b1af;fill-opacity:1;fill-rule:nonzero;stroke:none"
           id="path684" />
      </g>
      <g
         id="g686"
         transform="translate(697.3835,423.278)">
        <path
           d="m 0,0 c 0.031,-0.544 0.058,-1.073 0.081,-1.588 -8.283,-0.387 -16.861,-0.773 -25.029,0.026 -0.077,0.504 -0.153,1.006 -0.231,1.506 C -16.966,0.771 -8.335,0.389 0,0"
           style="fill:#b4b1af;fill-opacity:1;fill-rule:nonzero;stroke:none"
           id="path688" />
      </g>
      <g
         id="g690"
         transform="translate(696.6853,395.8994)">
        <path
           d="m 0,0 c -0.267,-2.963 -0.489,-4.76 -0.489,-4.76 0,0 3.895,-14.837 -0.556,-15.95 -4.451,-1.113 -18.268,-3.895 -20.123,-1.113 -1.811,2.717 1.055,14.097 0.153,23.611 C -14.01,2.537 -7.005,1.188 0,0"
           style="fill:#b4b1af;fill-opacity:1;fill-rule:nonzero;stroke:none"
           id="path692" />
      </g>
      <g
         id="g694"
         transform="translate(669.4831,438.8358)">
        <path
           d="m 0,0 c 8.667,0.627 17.742,0.316 26.471,-0.176 0.061,-0.521 0.121,-1.041 0.18,-1.559 C 17.994,-2.225 8.997,-2.538 0.388,-1.944 0.385,-1.926 0.381,-1.906 0.378,-1.888 0.254,-1.256 0.127,-0.626 0,0"
           style="fill:#b4b1af;fill-opacity:1;fill-rule:nonzero;stroke:none"
           id="path696" />
      </g>
      <g
         id="g698"
         transform="translate(697.3835,423.278)">
        <path
           d="m 0,0 c 0.031,-0.544 0.058,-1.073 0.081,-1.588 -8.283,-0.387 -16.861,-0.773 -25.029,0.026 -0.077,0.504 -0.153,1.006 -0.231,1.506 C -16.966,0.771 -8.335,0.389 0,0"
           style="fill:#b4b1af;fill-opacity:1;fill-rule:nonzero;stroke:none"
           id="path700" />
      </g>
      <g
         id="g702"
         transform="translate(675.6707,397.6877)">
        <path
           d="m 0,0 c 7.005,0.748 14.01,-0.6 21.015,-1.788 -0.268,-2.963 -0.489,-4.761 -0.489,-4.761 0,0 0.371,-1.416 0.753,-3.404 C 13.875,-9.973 7.091,-10.169 -0.189,-11.649 0.117,-7.915 0.361,-3.811 0,0"
           style="fill:#95908d;fill-opacity:1;fill-rule:nonzero;stroke:none"
           id="path704" />
      </g>
      <g
         id="g706"
         transform="translate(699.6805,410.1797)">
        <path
           d="m 0,0 -2.782,-19.659 -22.07,-1.113 -2.225,22.627 z"
           style="fill:#b4b1af;fill-opacity:1;fill-rule:nonzero;stroke:none"
           id="path708" />
      </g>
      <g
         id="g710"
         transform="translate(631.6292,491.5974)">
        <path
           d="m 0,0 c 0,0 2.643,-17.436 18.175,-29.303 16.506,-12.611 45.253,-16.691 45.253,-16.691 0,0 7.233,9.644 0,25.222 C 55.736,-4.204 29.674,-1.484 22.255,-0.742 14.837,0 0,0 0,0"
           style="fill:#706d6b;fill-opacity:1;fill-rule:nonzero;stroke:none"
           id="path712" />
      </g>
      <g
         id="g714"
         transform="translate(673.8793,480.2405)">
        <path
           d="m 0,0 c -0.732,-1.448 1.923,-4.263 5.93,-6.288 4.007,-2.024 7.848,-2.491 8.58,-1.043 0.732,1.448 -1.923,4.263 -5.93,6.288 C 4.573,0.981 0.732,1.448 0,0"
           style="fill:#d5b793;fill-opacity:1;fill-rule:nonzero;stroke:none"
           id="path716" />
      </g>
      <g
         id="g718"
         transform="translate(580.4287,491.5974)">
        <path
           d="m 0,0 c 0,0 -2.643,-17.436 -18.175,-29.303 -16.506,-12.611 -45.253,-16.691 -45.253,-16.691 0,0 -7.233,9.644 0,25.222 7.692,16.568 33.754,19.288 41.173,20.03 C -14.837,0 0,0 0,0"
           style="fill:#706d6b;fill-opacity:1;fill-rule:nonzero;stroke:none"
           id="path720" />
      </g>
      <g
         id="g722"
         transform="translate(591.7333,632.4864)">
        <path
           d="M 0,0 C 2.458,2.72 27.498,2.751 30.067,0 32.553,-2.663 29.52,-8.717 29.52,-8.717 L 15.033,-8.553 0.546,-8.717 c 0,0 -2.975,6.03 -0.546,8.717"
           style="fill:#706d6b;fill-opacity:1;fill-rule:nonzero;stroke:none"
           id="path724" />
      </g>
      <g
         id="g726"
         transform="translate(558.4206,615.733)">
        <path
           d="M 0,0 C 21.601,11.449 42.634,11.576 47.608,11.425 52.583,11.576 73.615,11.449 95.217,0 c 24.728,-13.106 29.674,-39.071 29.674,-39.071 0,0 -7.914,5.935 -27.449,9.892 -16.802,3.403 -42.183,3.147 -48.962,3.009 l -0.013,-0.042 c 0,0 -0.305,0.01 -0.859,0.023 -0.553,-0.013 -0.859,-0.023 -0.859,-0.023 l -0.013,0.042 c -6.778,0.138 -32.16,0.394 -48.962,-3.009 -19.535,-3.957 -27.448,-9.892 -27.448,-9.892 0,0 4.946,25.965 29.674,39.071"
           style="fill:#95908d;fill-opacity:1;fill-rule:nonzero;stroke:none"
           id="path728" />
      </g>
      <g
         id="g730"
         transform="translate(523.121,579.5062)">
        <path
           d="m 0,0 c 0,0 8.194,5.462 30.416,10.386 27.347,6.06 77.637,6.06 104.984,0 C 157.621,5.462 165.816,0 165.816,0 c 0,0 3.709,-29.878 3.338,-53.061 -0.22,-13.742 -2.782,-25.99 -2.782,-25.99 0,0 -27.634,-1.372 -50.446,-12.871 -18.051,-9.099 -32.283,-18.817 -32.283,-18.817 0,0 -17.001,8.705 -35.052,17.804 -22.812,11.499 -49.147,13.884 -49.147,13.884 0,0 -2.562,12.248 -2.782,25.99 C -3.709,-29.878 0,0 0,0"
           style="fill:#b4b1af;fill-opacity:1;fill-rule:nonzero;stroke:none"
           id="path732" />
      </g>
      <g
         id="g734"
         transform="translate(635.425,614.9373)">
        <path
           d="m 0,0 c -1.112,-2.201 2.923,-6.481 9.014,-9.558 6.091,-3.077 11.93,-3.787 13.042,-1.586 1.112,2.202 -2.923,6.481 -9.014,9.558 C 6.951,1.491 1.112,2.201 0,0"
           style="fill:#b4b1af;fill-opacity:1;fill-rule:nonzero;stroke:none"
           id="path736" />
      </g>
      <g
         id="g738"
         transform="translate(606.5474,594.4344)">
        <path
           d="m 0,0 c 19.236,-0.027 38.422,-1.539 51.974,-4.542 22.221,-4.924 30.415,-10.386 30.415,-10.386 0,0 3.71,-29.878 3.339,-53.061 -0.22,-13.742 -2.782,-25.99 -2.782,-25.99 0,0 -27.634,-1.372 -50.446,-12.871 -18.051,-9.099 -32.283,-18.817 -32.283,-18.817 0,0 -0.076,0.039 -0.217,0.111 z"
           style="fill:#cdcbc9;fill-opacity:1;fill-rule:nonzero;stroke:none"
           id="path740" />
      </g>
      <g
         id="g742"
         transform="translate(507.0728,444.2294)">
        <path
           d="m 0,0 -3.255,-33.781 c 0,0 -8.216,6.752 -14.822,11.415 -6.305,4.451 -10.2,5.935 -10.2,5.935 l 3.168,25.319 c 0,0 10.421,-4.368 16.743,-6.358 C -2.044,0.54 0,0 0,0"
           style="fill:#a15f0e;fill-opacity:1;fill-rule:nonzero;stroke:none"
           id="path744" />
      </g>
      <g
         id="g746"
         transform="translate(473.6966,638.4542)">
        <path
           d="m 0,0 -16.502,-66.897 5.869,-110.402 10.633,-0.494 11.128,50.445 z"
           style="fill:#e5b400;fill-opacity:1;fill-rule:nonzero;stroke:none"
           id="path748" />
      </g>
      <g
         id="g750"
         transform="translate(473.6945,638.4804)">
        <path
           d="M 0,0 16.502,-66.897 10.633,-177.299 0,-177.793 Z"
           style="fill:#edca4d;fill-opacity:1;fill-rule:nonzero;stroke:none"
           id="path752" />
      </g>
      <g
         id="g754"
         transform="translate(455.0566,454.3196)">
        <path
           d="m 0,0 h 37.278 c 6.555,0 11.869,5.314 11.869,11.87 v 0 H -11.87 v 0 C -11.87,5.314 -6.555,0 0,0"
           style="fill:#95908d;fill-opacity:1;fill-rule:nonzero;stroke:none"
           id="path756" />
      </g>
      <g
         id="g758"
         transform="translate(472.8246,408.1396)">
        <path
           d="m 0,0 h 1.742 c 4.509,0 8.235,3.516 8.496,8.018 L 12.74,51.187 H -10.999 L -8.496,8.018 C -8.235,3.516 -4.509,0 0,0"
           style="fill:#95908d;fill-opacity:1;fill-rule:nonzero;stroke:none"
           id="path760" />
      </g>
      <g
         id="g762"
         transform="translate(474.6733,454.6538)">
        <path
           d="m 0,0 0.293,-25.248 -9.267,-0.711 c -3.732,-0.286 -6.893,2.692 -6.855,6.457 l 0.134,13.277 c 0.031,3.025 2.405,5.514 5.408,5.667 z"
           style="fill:#a15f0e;fill-opacity:1;fill-rule:nonzero;stroke:none"
           id="path764" />
      </g>
      <g
         id="g766"
         transform="translate(553.2138,549.0846)">
        <path
           d="m 0,0 h 112.167 c 3.117,0 5.667,2.55 5.667,5.666 v 5.168 c 0,3.116 -2.55,5.666 -5.667,5.666 H 0 c -3.117,0 -5.666,-2.55 -5.666,-5.666 V 5.666 C -5.666,2.55 -3.117,0 0,0"
           style="fill:#575351;fill-opacity:1;fill-rule:nonzero;stroke:none"
           id="path768" />
      </g>
      <g
         id="g770"
         transform="translate(596.2744,472.5026)">
        <path
           d="m 0,0 c 0,6.566 3.481,11.713 10.047,11.713 l 52.363,0.161 v 0.004 l 0.61,-0.002 0.611,0.002 v -0.004 l 52.362,-0.161 c 6.566,0 10.047,-5.147 10.047,-11.713 0,0 2.703,-39.493 -0.569,-56.125 -2.779,-14.124 -6.529,-24.947 -25.694,-43.737 -11.918,-11.684 -24.479,-20.075 -33.699,-24.472 -2.368,-1.13 -4.616,-0.733 -6.116,0 -9.178,4.484 -21.78,12.788 -33.699,24.472 C 7.098,-81.072 3.349,-70.249 0.569,-56.125 -2.703,-39.493 0,0 0,0"
           style="fill:#bab7b5;fill-opacity:1;fill-rule:nonzero;stroke:none"
           id="path772" />
      </g>
      <g
         id="g774"
         transform="translate(659.3087,357.2727)">
        <path
           d="m 0,0 c 9.532,4.747 20.689,12.958 30.08,22.165 17.738,17.391 20.631,26.645 23.018,38.778 2.482,12.617 1.139,42.997 0.412,53.637 -0.015,0.217 -0.022,0.434 -0.022,0.65 0,1.151 -0.218,1.867 -0.369,2.19 -0.045,0.003 -0.098,0.005 -0.16,0.005 l -52.392,0.16 c -0.07,0 -0.14,0.001 -0.21,0.003 h -0.74 c -0.07,-0.002 -0.141,-0.002 -0.212,-0.003 l -52.363,-0.16 c -0.075,0 -0.138,-0.002 -0.19,-0.006 -0.15,-0.323 -0.368,-1.039 -0.368,-2.189 0,-0.216 -0.007,-0.433 -0.022,-0.649 -0.727,-10.641 -2.07,-41.021 0.412,-53.639 2.388,-12.132 5.28,-21.386 23.019,-38.777 C -17.35,9.657 -5.468,2.789 0,0"
           style="fill:#eec600;fill-opacity:1;fill-rule:nonzero;stroke:none"
           id="path776" />
      </g>
      <g
         id="g778"
         transform="translate(660.0942,474.8574)"
         style="fill:#011627;fill-opacity:1">
        <path
           d="m 0,0 52.173,-0.16 c 0.062,0 0.116,-0.002 0.16,-0.005 0.151,-0.322 0.369,-1.039 0.369,-2.19 0,-0.216 0.007,-0.433 0.022,-0.649 0.727,-10.641 2.071,-41.021 -0.412,-53.638 C 49.925,-68.775 47.033,-78.029 29.294,-95.419 20.159,-104.376 9.356,-112.381 0,-117.18 Z"
           style="fill:#011627;fill-opacity:1;fill-rule:nonzero;stroke:none"
           id="path780" />
      </g>
      <g
         id="g782">
        <g
           id="g784" />
        <g
           id="g796">
          <g
             clip-path="url(#clipPath788)"
             id="g794"
             style="opacity:0.30000299">
            <g
               transform="translate(660.0942,484.3758)"
               id="g792">
              <path
                 d="m 0,0 52.174,-0.16 c 6.566,0 10.047,-5.147 10.047,-11.713 0,0 2.703,-39.493 -0.57,-56.125 C 58.872,-82.123 55.122,-92.946 35.958,-111.735 24.039,-123.42 11.479,-131.81 2.258,-136.208 1.485,-136.576 0.726,-136.78 0,-136.865 Z"
                 style="fill:#95908d;fill-opacity:1;fill-rule:nonzero;stroke:none"
                 id="path790" />
            </g>
          </g>
        </g>
      </g>
    </g>
  </g>
</svg>
